<svg xmlns:xlink="http://www.w3.org/1999/xlink" width="439" xmlns="http://www.w3.org/2000/svg" height="68.02" id="screenshot-2c732a3d-cf8c-808c-8001-ba4d386a901f" viewBox="0 0 439 68.02" style="-webkit-print-color-adjust: exact;" fill="none" version="1.1"><g id="shape-2c732a3d-cf8c-808c-8001-ba4d386a901f" rx="0" ry="0"><g id="shape-2c732a3d-cf8c-808c-8001-ba4cdf6fd308"><g id="fills-2c732a3d-cf8c-808c-8001-ba4cdf6fd308"><path stroke="none" rx="0" ry="0" d="M54,32.5L54,65L59.5,65L65,65L65,48.1C65,38.7,65.3,30.9,65.8,30.7C66.2,30.4,73.7,38.3,82.5,48.1C91.2,57.9,99,66,99.7,66C100.7,66,101,59.6,101,34L101,2L95,2L89,2L89,19.5C89,29.1,88.7,37,88.3,36.9C87.8,36.9,80.4,28.6,71.7,18.4C63,8.3,55.5,0,55,0C54.4,0,54,12.5,54,32.5ZZ" style="fill: rgb(0, 0, 0);"/></g></g><g id="shape-2c732a3d-cf8c-808c-8001-ba4cdf7057d7"><g id="fills-2c732a3d-cf8c-808c-8001-ba4cdf7057d7"><path stroke="none" rx="0" ry="0" d="M128.7,2.1C119.8,4.7,112,15.5,112,25.4C112.1,34.1,119.3,49,130.3,63C136,70.3,135.5,70.4,144.3,58.2C160.1,36.2,162.9,21.2,153.2,10C147.1,2.8,137.4,-0.3,128.7,2.1ZZM141.8,19.6C143,21,144,23.4,144,25.1C144,29,139.2,34,135.5,34C131.9,34,127,29,127,25.3C127,17.1,136.3,13.5,141.8,19.6ZZ" style="fill: rgb(86, 103, 253);"/></g></g><g id="shape-2c732a3d-cf8c-808c-8001-ba4cdf70f7b3"><g id="fills-2c732a3d-cf8c-808c-8001-ba4cdf70f7b3"><path stroke="none" rx="0" ry="0" d="M0,33.5L0,65L6,65L11.9,65L12.2,52.4L12.5,39.8L21,52.4L29.5,65L36.8,65C42.2,65,43.9,64.7,43.4,63.8C43,63.1,38,55.9,32.2,47.7L21.8,32.8L24.6,28.7C26.1,26.4,30.7,19.4,34.7,13.2L42,2L35.1,2L28.2,2L20.3,14.5L12.5,27L12.2,14.5L11.9,2L6,2L0,2L0,33.5ZZ" style="fill: rgb(0, 0, 0);"/></g></g><g id="shape-2c732a3d-cf8c-808c-8001-ba4cdf7181ca"><g id="fills-2c732a3d-cf8c-808c-8001-ba4cdf7181ca"><path stroke="none" rx="0" ry="0" d="M161,2.5C161,4,186.3,66,187,66C187.4,66,190.3,59.7,193.5,52C196.7,44.3,199.5,38,199.9,38C200.2,38,203,44.2,206,51.7C209,59.2,211.9,65.4,212.4,65.4C213.2,65.5,225.6,35.8,237.3,6.2L239,2L232.2,2L225.5,2L219.6,17.3C216.3,25.6,213.3,32.9,212.9,33.3C212.5,33.8,209.6,27.5,206.5,19.3C203.3,11.2,200.4,4.2,200.1,3.8C199.7,3.4,196.8,10,193.5,18.5C190.2,27,187.3,34,187,34C186.7,34,183.7,26.9,180.3,18.2L174.2,2.5L167.6,2.2C164,2,161,2.2,161,2.5ZZ" style="fill: rgb(0, 0, 0);"/></g></g><g id="shape-2c732a3d-cf8c-808c-8001-ba4cdf721edb"><g id="fills-2c732a3d-cf8c-808c-8001-ba4cdf721edb"><path stroke="none" rx="0" ry="0" d="M248,33.5L248,65L254,65L260,65L260,52L260,39L270,39L280,39L280,52L280,65L286,65L292,65L292,33.5L292,2L286,2L280,2L280,14.5L280,27L270,27L260,27L260,14.5L260,2L254,2L248,2L248,33.5ZZ" style="fill: rgb(0, 0, 0);"/></g></g><g id="shape-2c732a3d-cf8c-808c-8001-ba4cdf72897c"><g id="fills-2c732a3d-cf8c-808c-8001-ba4cdf72897c"><path stroke="none" rx="0" ry="0" d="M307,33.5L307,65L323,65L339,65L339,59L339,53L329,53L319,53L319,46L319,39L327.5,39L336,39L336,33L336,27L327.5,27L319,27L319,20.5L319,14L328.5,14L338,14L338,8L338,2L322.5,2L307,2L307,33.5ZZ" style="fill: rgb(0, 0, 0);"/></g></g><g id="shape-2c732a3d-cf8c-808c-8001-ba4cdf732683"><g id="fills-2c732a3d-cf8c-808c-8001-ba4cdf732683"><path stroke="none" rx="0" ry="0" d="M352,33.4L352,65L358,65L364,65L364,52.5L364,40L367.3,40C370.4,40,370.7,40.4,377,52.5L383.5,65L390.3,65C394.1,65,396.9,64.7,396.7,64.2C390.7,54.1,383,39.9,383,39.1C383,38.6,383.9,37.9,384.9,37.5C387.9,36.6,392.8,30.5,394.1,26.1C396.4,18.5,393.3,9.5,386.7,4.6C384.1,2.7,382.2,2.5,367.9,2.2L352,1.9L352,33.4ZZM380.4,16.2C382.9,19.7,382.4,24.5,379.4,26.9C377.3,28.5,375.3,29,370.4,29L364,29L364,21.5L364,14L371.4,14C378,14,379.1,14.3,380.4,16.2ZZ" style="fill: rgb(0, 0, 0);"/></g></g><g id="shape-2c732a3d-cf8c-808c-8001-ba4cdf738b78"><g id="fills-2c732a3d-cf8c-808c-8001-ba4cdf738b78"><path stroke="none" rx="0" ry="0" d="M407,33.5L407,65L423,65L439,65L439,59L439,53.1L428.8,52.8L418.5,52.5L418.5,46L418.5,39.5L426.8,39.2L435,38.9L435,33L435,27L426.5,27L418,27L418,20.5L418,14L428,14L438,14L438,8L438,2L422.5,2L407,2L407,33.5ZZ" style="fill: rgb(0, 0, 0);"/></g></g></g></svg>