<svg xmlns:xlink="http://www.w3.org/1999/xlink" width="511.912" xmlns="http://www.w3.org/2000/svg" height="503.996" id="screenshot-2c732a3d-cf8c-808c-8001-ba50a16014c6" viewBox="0 0 511.912 503.996" style="-webkit-print-color-adjust: exact;" fill="none" version="1.1"><g id="shape-2c732a3d-cf8c-808c-8001-ba50a16014c6" rx="0" ry="0"><g id="shape-2c732a3d-cf8c-808c-8001-ba4fb1af98b9"><g id="fills-2c732a3d-cf8c-808c-8001-ba4fb1af98b9"><path opacity="1.000000" stroke="none" rx="0" ry="0" d="M0,286.379C0.666,285.258,1.768,284.7,1.932,283.939C4.354,272.741,8.003,262.006,16.609,254.054C20.657,250.314,25.756,247.447,30.826,245.188C33.363,244.058,34.056,243.108,34.025,240.702C33.946,234.537,33.884,228.367,34.024,222.204C34.266,211.617,34.1,200.978,35.117,190.459C37.253,168.384,42.141,146.918,51.024,126.45C58.971,108.14,69.137,91.151,81.783,75.79C93.713,61.297,107.434,48.599,122.957,37.872C141.625,24.972,161.579,14.736,183.527,8.902C194.721,5.927,206.178,3.721,217.646,2.057C227.209,0.669,236.992,-0.28,246.623,0.075C272.487,1.029,297.844,5.294,321.643,15.976C334.501,21.747,346.916,28.507,359.909,35.011C369.141,26.171,376.801,26.678,387.76,37.932C393.064,30.691,400.001,26.388,408.775,30.406C417.106,34.22,418.692,41.97,416.715,50.988C426.257,50.425,435.19,50.419,438.355,61.695C440.247,68.435,438.618,72.555,430.04,80.397C434.96,85.171,440.085,90,438.965,97.768C437.902,105.145,433.103,109.232,426.204,111.153C429.07,117.046,431.871,122.806,434.703,128.629C439.481,125.163,444.317,121.147,449.627,117.907C462.174,110.252,475.407,107.113,489.161,114.637C499.764,120.437,504.55,130.633,507.994,141.6C509.132,145.225,510.203,148.872,511.653,152.21C512,167.265,512,182.619,511.64,198.141C510.859,198.977,510.22,199.593,510.049,200.319C505.744,218.639,502.178,237.168,497.024,255.244C492.202,272.157,486.485,288.918,479.725,305.147C473.127,320.987,465.009,336.227,456.975,351.421C452.565,359.761,449.62,367.824,449.774,377.658C450.344,413.98,449.666,450.32,450.198,486.642C450.365,498.079,441.46,504.005,432.657,503.996C305.835,503.873,179.013,503.912,52.191,503.912C51.358,503.912,50.516,503.989,49.693,503.9C40.85,502.937,36.424,498.559,35.097,492.098C34.249,487.967,33.853,483.616,34.104,479.414C34.56,471.779,32.837,465.527,28.055,459.046C18.582,446.207,19.655,425.91,30.422,414.996C34.925,410.432,35.49,404.394,31.738,399.261C16.802,378.823,6.629,356.315,1.919,331.384C1.807,330.793,0.663,330.397,0,329.911C0,315.557,0,301.202,0,286.379ZM478.381,270.855C478.586,270.564,478.791,270.274,479.315,269.553C479.489,269.059,479.663,268.566,480.016,267.314C482.232,259.331,484.448,251.348,487.134,243.002C487.404,242.313,487.674,241.623,488.28,240.245C488.725,238.652,489.219,237.07,489.609,235.463C495.58,210.836,502.461,186.312,498.983,160.514C497.715,151.109,495.669,141.92,489.989,133.205C489.371,133.064,488.754,132.924,488.231,132.058C484.186,126.162,477.659,124.11,469.755,126.526C458.57,129.945,450.045,137.349,442.259,145.642C438.301,149.858,434.834,154.535,430.986,158.233C425.177,137.4,416.678,117.806,404.06,99.137C404.133,97.753,404.206,96.369,404.291,94.75C411.619,95.136,418.328,95.49,426.246,95.908C420.227,90.387,415.142,85.722,409.767,80.791C415.01,75.964,420.008,71.363,425.48,66.325C417.643,66.325,410.935,66.325,403.862,66.325C404.206,59.212,404.535,52.407,404.923,44.391C399.314,50.516,394.658,55.6,389.852,60.85C384.754,55.314,380.206,50.376,375.628,45.406C375.628,52.598,375.628,59.366,375.026,65.871C370.966,62.431,367.063,58.784,362.823,55.582C319.716,23.032,271.157,9.905,217.781,17.248C170.128,23.803,130.317,45.926,98.812,82.469C67.654,118.608,52.589,160.816,52.062,208.345C51.88,224.839,52.024,241.337,51.109,257.896C46.391,258.807,41.674,259.718,36.241,260.585C35.705,260.971,35.17,261.357,33.962,261.83C31.547,264.039,28.478,265.844,26.824,268.523C17.235,284.058,15.706,301.15,17.464,319.116C17.746,319.905,18.029,320.693,18.158,322.33C20.963,342.299,28.326,360.631,38.406,378.56C38.905,379.062,39.403,379.563,40.035,380.743C44.075,386.789,48.114,392.834,52.057,399.819C52.079,405.854,52.101,411.89,51.71,418.458C45.207,423.126,39.748,428.491,39.144,437.717C39.293,438.236,39.442,438.755,39.337,440.053C40.302,449.267,46.593,455.356,52.05,462.821C52.05,471.383,52.05,479.944,52.05,488.62C64.263,488.62,75.567,488.62,87.814,488.76C102.611,488.725,117.407,488.69,132.718,488.71C133.061,488.689,133.404,488.668,134.713,488.726C149.847,488.682,164.981,488.637,181.023,488.718C193.769,488.658,206.514,488.598,220.15,488.689C276.481,488.698,332.811,488.713,389.141,488.711C397.805,488.711,406.469,488.636,416.033,488.718C422.953,488.718,429.874,488.718,437.094,488.718C437.094,445.565,437.094,403.185,437.334,360.266C437.584,359.514,437.835,358.763,438.528,357.772C438.93,357.235,439.331,356.699,440.119,355.534C454.739,330.653,466.915,304.627,476.573,277.434C477.325,275.316,477.408,272.961,477.814,270.743C477.814,270.743,477.838,270.745,478.381,270.855ZZ" style="fill: rgb(254, 254, 254);"/></g></g><g id="shape-2c732a3d-cf8c-808c-8001-ba4fb1b1a2e7"><g id="fills-2c732a3d-cf8c-808c-8001-ba4fb1b1a2e7"><path opacity="1.000000" stroke="none" rx="0" ry="0" d="M415.132,488.596C406.469,488.636,397.805,488.711,389.141,488.711C332.811,488.713,276.481,488.698,219.573,488.316C209.96,477.529,200.802,467.217,191.918,456.676C180.468,443.09,169.236,429.319,157.788,415.342C149.188,403.01,140.712,390.965,132.172,378.596C131.745,377.788,131.382,377.303,130.97,376.462C127.411,369.336,125.128,362.284,125.929,354.142C126.593,350.857,127.276,347.946,128.266,344.857C132.086,339.408,135.6,334.136,139.493,328.878C151.949,332.442,164.025,335.991,176.354,339.614C167.798,351.389,173.124,363.779,187.212,366.89C190.711,361.043,194.09,355.17,197.746,349.476C198.493,348.311,200.282,347.815,201.59,347.01C202.129,348.624,203.542,350.589,203.059,351.791C200.729,357.58,198.077,363.264,195.16,368.784C193.26,372.379,189.601,373.974,185.795,372.996C180.063,371.523,174.35,369.673,168.96,367.247C159.8,363.124,150.243,361.866,140.378,361.935C140.298,361.936,140.223,362.486,140.071,363.062C141.006,363.298,141.919,363.686,142.85,363.739C153.753,364.363,164.225,366.396,173.894,371.908C176.706,373.51,180.102,374.265,183.329,374.92C187.714,375.811,192.611,375.818,195.181,371.759C199.032,365.678,202.145,359.08,205.011,352.46C205.754,350.743,204.409,348.123,204.453,345.899C209.407,345.615,214.256,349.198,218.441,345.381C219.331,346.057,220.489,347.687,221.75,347.772C230.023,348.325,238.316,348.612,246.607,348.799C247.816,348.826,249.043,347.458,250.27,347.441C252.399,347.413,254.568,348.333,256.661,348.156C263.75,347.556,270.813,346.649,277.872,346.279C276.368,356.42,276.903,366.111,278.487,375.8C278.984,365.57,279.481,355.34,280.007,344.651C279.72,339.737,279.405,335.283,279.09,330.83C279.621,330.789,280.153,330.749,280.684,330.708C280.89,335.289,281.095,339.871,281.312,344.726C296.898,341.289,310.647,335.485,323.618,327.364C331.57,322.386,337.098,316.887,334.922,306.283C334.25,268.481,333.585,231.135,332.912,193.395C332.855,191.948,332.804,190.896,332.812,189.636C332.872,189.428,332.839,188.998,332.885,188.98C332.93,188.962,332.987,188.882,333.251,188.682C335.514,186.062,337.216,183.287,339.58,181.301C343.37,178.117,347.689,176.002,352.529,179.459C348.218,195.488,353.272,211.25,365.112,219.727C366.135,224.368,367.068,228.648,367.996,233.345C368.512,236.856,369.072,239.942,369.549,243.041C372.06,259.362,374.55,275.686,377.026,292.401C377.125,294.344,377.245,295.894,377.046,297.759C375.484,307.727,374.196,317.375,373.01,327.035C371.72,337.533,370.44,348.033,369.311,358.549C368.147,369.396,367.17,380.264,366.087,391.492C365.778,394.006,365.492,396.15,365.157,398.778C365.023,400.848,364.938,402.436,364.571,403.85C361.343,400.373,358.397,397.07,355.451,393.766C355.105,394.085,354.76,394.405,354.414,394.724C354.414,401.231,354.414,407.738,354.414,414.918C347.571,414.54,340.748,414.163,332.511,413.708C338.484,419.349,343.425,424.015,348.651,428.95C343.132,434.106,338.284,438.635,332.45,444.084C340.878,443.618,347.719,443.239,354.419,442.869C354.419,450.265,354.419,456.733,354.419,464.218C359.539,458.686,363.977,453.89,368.67,448.82C373.78,454.333,378.46,459.382,384.047,465.409C383.688,460.607,383.435,457.214,383.447,454.015C390.09,460.95,396.539,467.625,402.818,474.455C407.047,479.055,411.036,483.875,415.132,488.596ZZ" style="fill: rgb(255, 146, 131);"/></g></g><g id="shape-2c732a3d-cf8c-808c-8001-ba4fb1b36845"><g id="fills-2c732a3d-cf8c-808c-8001-ba4fb1b36845"><path opacity="1.000000" stroke="none" rx="0" ry="0" d="M139.114,328.864C135.6,334.136,132.086,339.408,128.234,344.542C127.351,343.548,126.807,342.694,126.188,341.477C118.465,326.614,111.071,311.972,103.085,297.66C97.077,286.891,89.474,277.264,79.2,269.653C78.511,269.274,77.979,269.142,77.246,268.703C69.734,262.434,61.277,259.186,52.019,257.833C52.024,241.337,51.88,224.839,52.062,208.345C52.589,160.816,67.654,118.608,98.812,82.469C130.317,45.926,170.128,23.803,217.781,17.248C271.157,9.905,319.716,23.032,362.823,55.582C367.063,58.784,370.966,62.431,375.077,66.255C368.35,66.639,361.57,66.639,354.598,66.639C359.704,71.346,364.655,75.91,369.911,80.756C364.395,85.886,359.393,90.536,353.594,95.929C361.806,95.513,368.691,95.163,375.426,94.822C375.426,102.231,375.426,108.837,375.426,116.333C380.648,110.684,385.216,105.742,389.892,100.684C394.963,106.207,399.61,111.268,404.952,117.086C404.668,110.608,404.436,105.324,404.204,100.041C416.678,117.806,425.177,137.4,431.024,158.892C431.024,159.919,430.986,160.289,430.678,160.834C430.188,161.608,429.967,162.205,429.482,163.012C422.413,176.745,415.606,190.269,408.989,203.418C407.489,200.57,405.977,196.832,403.731,193.605C397.336,184.417,386.886,184.515,381.595,194.248C377.663,201.483,374.858,209.38,372.061,217.165C370.235,222.25,369.323,227.662,368.001,232.928C367.068,228.648,366.135,224.368,365.127,219.286C364.954,217.911,364.857,217.336,364.714,216.552C364.527,216.062,364.302,215.898,364.021,215.858C364.051,215.864,364.061,215.925,364.09,215.489C362.955,208.101,362.257,201.026,360.469,194.239C359.213,189.469,356.474,185.09,354.3,180.297C353.704,179.726,353.204,179.393,352.705,179.061C347.689,176.002,343.37,178.117,339.58,181.301C337.216,183.287,335.514,186.062,333.225,188.242C332.645,180.193,332.265,172.387,332.086,164.577C331.708,148.107,331.435,131.636,331.455,115.009C336.522,114.03,337.751,111.027,337.158,106.63C336.873,104.514,337.114,102.329,337.108,100.175C337.082,91.766,334.893,89.705,326.136,89.856C325.71,89.552,325.523,89.458,325.339,88.93C325.054,82.331,324.765,76.165,324.67,69.664C323.245,69.226,321.626,69.124,319.543,68.951C266.67,69.223,214.262,69.558,161.853,69.918C153.702,69.974,149.478,73.89,148.305,82.448C148.265,83.354,148.379,83.966,148.417,85.039C148.49,92.847,148.639,100.194,148.553,107.669C148.12,108.089,147.923,108.381,147.281,108.696C143.699,108.808,140.548,108.741,137.428,109.022C132.934,109.428,129.996,112.562,130.31,116.96C130.729,122.833,131.57,128.676,132.229,134.525C135.74,135.089,138.82,135.585,141.935,136.287C141.969,136.494,142.094,136.894,142.076,137.284C142.328,139.23,142.599,140.787,142.441,142.298C123.669,141.498,112.48,156.218,118.427,173.487C119.826,177.551,121.684,181.501,123.728,185.289C127.336,191.975,131.25,198.496,134.587,205.046C127.578,205.344,121.017,205.681,114.592,206.011C114.592,198.59,114.592,191.967,114.592,184.479C109.4,190.092,104.838,195.025,100.165,200.077C95.083,194.554,90.431,189.498,85.056,183.657C85.449,191.743,85.783,198.61,86.143,206.002C78.563,205.611,71.744,205.259,63.751,204.847C69.802,210.381,74.892,215.036,80.313,219.994C75.037,224.846,70.043,229.438,65.05,234.03C65.275,234.36,65.501,234.69,65.727,235.02C72.417,234.717,79.107,234.414,86.161,234.095C85.8,241.612,85.475,248.391,85.097,256.265C90.704,250.245,95.392,245.21,100.25,239.994C105.331,245.507,109.862,250.424,114.596,255.56C114.596,248.041,114.596,241.168,114.596,234.044C121.644,234.37,128.439,234.684,136.487,235.055C130.419,229.441,125.471,224.863,121.07,220.791C125.976,215.547,130.487,210.725,135.347,205.926C144.314,216.579,152.933,227.209,161.127,237.934C150.114,239.958,142.251,246.019,135.934,254.403C129.028,263.57,129.247,273.082,134.99,282.736C133.644,283.732,132.562,284.489,131.526,285.305C114.064,299.069,116.917,319.735,137.399,327.938C137.998,328.178,138.543,328.552,139.114,328.864ZM276.709,49.707C277.785,49.14,278.862,48.573,281.286,47.297C278.058,46.366,276.277,45.673,274.432,45.358C270.736,44.729,265.786,45.553,263.634,43.447C261.508,41.366,262.295,36.392,261.611,32.723C261.25,30.789,260.478,28.931,259.892,27.039C259.235,27.064,258.578,27.089,257.92,27.114C257.602,30.384,257.134,33.647,256.995,36.924C256.683,44.257,256.175,44.718,248.957,45.054C245.588,45.211,242.244,45.922,238.89,46.381C238.904,47.157,238.918,47.934,238.932,48.71C241.538,49.114,244.135,49.794,246.751,49.874C256.363,50.17,256.738,50.552,257.042,60.071C257.128,62.744,257.882,65.395,258.33,68.056C259.031,68.02,259.733,67.984,260.434,67.948C260.906,65.479,261.646,63.026,261.804,60.536C262.466,50.118,262.402,50.115,272.889,49.906C273.885,49.886,274.881,49.84,276.709,49.707ZM107.854,118.484C107.375,114.9,106.896,111.316,106.417,107.733C105.724,107.728,105.031,107.724,104.338,107.72C103.888,109.437,103.097,111.145,103.043,112.875C102.65,125.618,103.275,125.073,90.15,125.897C88.994,125.969,87.825,126.056,86.699,126.303C85.743,126.512,84.839,126.962,83.913,127.306C84.246,128.029,84.58,128.753,84.914,129.476C88.915,129.91,92.92,130.721,96.914,130.672C100.825,130.624,102.395,132.437,102.714,135.886C102.929,138.204,102.765,140.559,103.027,142.869C103.249,144.822,103.84,146.733,104.267,148.662C104.92,148.641,105.573,148.62,106.226,148.598C106.762,145.185,107.541,141.788,107.785,138.354C108.289,131.272,108.181,131.365,115.352,130.68C118.855,130.345,122.315,129.553,125.794,128.969C125.741,128.23,125.688,127.491,125.635,126.752C121.474,126.255,117.323,125.497,113.149,125.336C109.015,125.175,107.48,123.267,107.854,118.484ZM375.455,184.444C378.545,187.484,378.624,184.352,378.897,182.593C379.379,179.484,379.762,176.318,379.727,173.181C379.677,168.865,382.009,167.925,385.723,167.816C389.533,167.705,393.327,167.081,397.129,166.681C397.181,165.931,397.233,165.18,397.285,164.43C395.101,163.939,392.923,163.059,390.731,163.023C378.302,162.818,380.587,162.327,379.096,151.388C378.939,150.24,379.188,149.01,378.896,147.913C378.604,146.819,377.868,145.844,377.326,144.817C376.802,144.876,376.277,144.934,375.753,144.993C375.227,149.128,374.396,153.253,374.263,157.4C374.137,161.339,372.12,162.692,368.674,162.848C366.347,162.953,363.985,162.74,361.696,163.069C359.982,163.316,358.36,164.2,356.696,164.801C356.764,165.433,356.832,166.066,356.9,166.698C360.715,167.093,364.524,167.714,368.347,167.82C372.111,167.924,374.298,168.969,374.249,173.263C374.209,176.729,374.835,180.202,375.455,184.444ZZ" style="fill: rgb(86, 103, 253);"/></g></g><g id="shape-2c732a3d-cf8c-808c-8001-ba4fb1b3ebe2"><g id="fills-2c732a3d-cf8c-808c-8001-ba4fb1b3ebe2"><path opacity="1.000000" stroke="none" rx="0" ry="0" d="M477.802,270.716C477.408,272.961,477.325,275.316,476.573,277.434C466.915,304.627,454.739,330.653,439.494,355.714C420.464,355.894,402.059,355.894,383.483,355.894C383.907,354.762,384.397,353.217,385.049,351.744C394.521,330.332,404.101,308.968,413.418,287.49C415.022,283.795,417.222,282.196,421.127,281.795C425.74,281.32,430.297,280.258,434.858,279.349C449.178,276.497,463.488,273.597,477.802,270.716ZZ" style="fill: rgb(222, 212, 147);"/></g></g><g id="shape-2c732a3d-cf8c-808c-8001-ba4fb1b43aed"><g id="fills-2c732a3d-cf8c-808c-8001-ba4fb1b43aed"><path opacity="1.000000" stroke="none" rx="0" ry="0" d="M490.238,133.862C495.669,141.92,497.715,151.109,498.983,160.514C502.461,186.312,495.58,210.836,489.609,235.463C489.219,237.07,488.725,238.652,487.729,240.571C467.023,247.691,446.868,254.485,425.681,261.626C426.727,259.332,427.107,258.41,427.557,257.523C448.447,216.301,469.343,175.082,490.238,133.862ZZ" style="fill: rgb(222, 212, 146);"/></g></g><g id="shape-2c732a3d-cf8c-808c-8001-ba4fb1b47c56"><g id="fills-2c732a3d-cf8c-808c-8001-ba4fb1b47c56"><path opacity="1.000000" stroke="none" rx="0" ry="0" d="M415.582,488.657C411.036,483.875,407.047,479.055,402.818,474.455C396.539,467.625,390.09,460.95,383.407,453.558C383.1,449.665,383.1,446.424,383.1,442.792C390.455,443.198,397.171,443.568,405.013,444.001C399.044,438.459,393.908,433.692,388.663,428.822C394.099,423.821,399.044,419.271,404.902,413.881C401.964,413.881,400.478,413.881,399.103,413.56C399.964,412.147,400.681,411.031,401.467,409.964C409.429,399.157,417.403,388.357,425.474,377.362C425.714,376.78,425.854,376.389,426.299,375.841C430.1,370.724,433.597,365.764,437.094,360.805C437.094,403.185,437.094,445.565,437.094,488.718C429.874,488.718,422.953,488.718,415.582,488.657ZZ" style="fill: rgb(86, 103, 253);"/></g></g><g id="shape-2c732a3d-cf8c-808c-8001-ba4fb1b498fb"><g id="fills-2c732a3d-cf8c-808c-8001-ba4fb1b498fb"><path opacity="1.000000" stroke="none" rx="0" ry="0" d="M52.153,398.879C48.114,392.834,44.075,386.789,40.37,380.371C59.394,383.697,77.243,389.875,94.184,398.555C96.278,399.628,98.335,401.833,99.236,404.001C104.333,416.267,109.091,428.673,113.925,441.047C116.065,446.526,118.114,452.041,120.303,457.8C92.853,450.81,66.046,443.984,39.24,437.157C39.748,428.491,45.207,423.126,52.271,418.145C56.847,416.246,60.863,414.659,65.271,412.917C60.654,407.976,56.404,403.427,52.153,398.879ZZ" style="fill: rgb(222, 212, 146);"/></g></g><g id="shape-2c732a3d-cf8c-808c-8001-ba4fb1b4c590"><g id="fills-2c732a3d-cf8c-808c-8001-ba4fb1b4c590"><path opacity="1.000000" stroke="none" rx="0" ry="0" d="M38.18,378.069C28.326,360.631,20.963,342.299,18.619,321.963C36.718,328.423,54.391,335.161,71.94,342.21C73.753,342.938,75.328,345.303,76.156,347.27C82.541,362.425,88.722,377.666,94.94,392.891C95.407,394.035,95.67,395.262,95.907,396.049C83.561,391.48,71.407,386.608,58.991,382.538C52.286,380.34,45.132,379.514,38.18,378.069ZZ" style="fill: rgb(222, 211, 146);"/></g></g><g id="shape-2c732a3d-cf8c-808c-8001-ba4fb1b51552"><g id="fills-2c732a3d-cf8c-808c-8001-ba4fb1b51552"><path opacity="1.000000" stroke="none" rx="0" ry="0" d="M52.143,461.88C46.593,455.356,40.302,449.267,39.853,439.705C66.347,446.278,92.34,453.14,118.268,460.245C120.082,460.742,122.08,462.752,122.838,464.545C126.19,472.485,129.12,480.602,132.203,488.655C117.407,488.69,102.611,488.725,87.167,488.439C75.061,479.372,63.602,470.626,52.143,461.88ZZ" style="fill: rgb(222, 212, 147);"/></g></g><g id="shape-2c732a3d-cf8c-808c-8001-ba4fb1b5b9ec"><g id="fills-2c732a3d-cf8c-808c-8001-ba4fb1b5b9ec"><path opacity="1.000000" stroke="none" rx="0" ry="0" d="M404.132,99.589C404.436,105.324,404.668,110.608,404.952,117.086C399.61,111.268,394.963,106.207,389.892,100.684C385.216,105.742,380.648,110.684,375.426,116.333C375.426,108.837,375.426,102.231,375.426,94.822C368.691,95.163,361.806,95.513,353.594,95.929C359.393,90.536,364.395,85.886,369.911,80.756C364.655,75.91,359.704,71.346,354.598,66.639C361.57,66.639,368.35,66.639,375.379,66.386C375.628,59.366,375.628,52.598,375.628,45.406C380.206,50.376,384.754,55.314,389.852,60.85C394.658,55.6,399.314,50.516,404.923,44.391C404.535,52.407,404.206,59.212,403.862,66.325C410.935,66.325,417.643,66.325,425.48,66.325C420.008,71.363,415.01,75.964,409.767,80.791C415.142,85.722,420.227,90.387,426.246,95.908C418.328,95.49,411.619,95.136,404.291,94.75C404.206,96.369,404.133,97.753,404.132,99.589ZZ" style="fill: rgb(254, 180, 65);"/></g></g><g id="shape-2c732a3d-cf8c-808c-8001-ba4fb1b5ce03"><g id="fills-2c732a3d-cf8c-808c-8001-ba4fb1b5ce03"><path opacity="1.000000" stroke="none" rx="0" ry="0" d="M430.947,160.658C430.986,160.289,431.024,159.919,431.104,159.277C434.834,154.535,438.301,149.858,442.259,145.642C450.045,137.349,458.57,129.945,469.755,126.526C477.659,124.11,484.186,126.162,488.164,132.799C474.301,159.957,460.503,186.374,446.342,213.486C444.757,208.346,443.298,203.86,441.992,199.331C438.277,186.449,434.624,173.55,430.947,160.658ZZ" style="fill: rgb(222, 212, 146);"/></g></g><g id="shape-2c732a3d-cf8c-808c-8001-ba4fb1b63891"><g id="fills-2c732a3d-cf8c-808c-8001-ba4fb1b63891"><path opacity="1.000000" stroke="none" rx="0" ry="0" d="M17.907,318.844C15.706,301.15,17.235,284.058,26.824,268.523C28.478,265.844,31.547,264.039,34.538,262.072C49.625,286.701,61.683,312.288,72.156,338.765C71.798,339.144,71.661,339.301,71.19,339.331C53.206,332.418,35.557,325.631,17.907,318.844ZZ" style="fill: rgb(222, 212, 146);"/></g></g><g id="shape-2c732a3d-cf8c-808c-8001-ba4fb1b65d7b"><g id="fills-2c732a3d-cf8c-808c-8001-ba4fb1b65d7b"><path opacity="1.000000" stroke="none" rx="0" ry="0" d="M180.116,488.592C164.981,488.637,149.847,488.682,134.212,488.33C132.151,483.572,130.461,479.251,129.106,474.827C128.683,473.445,128.605,471.436,129.315,470.309C139.375,454.316,149.598,438.426,159.938,422.879C165.004,437.827,170.1,452.346,174.742,467.009C176.975,474.064,178.351,481.389,180.116,488.592ZZ" style="fill: rgb(222, 212, 148);"/></g></g><g id="shape-2c732a3d-cf8c-808c-8001-ba4fb1b72886"><g id="fills-2c732a3d-cf8c-808c-8001-ba4fb1b72886"><path opacity="1.000000" stroke="none" rx="0" ry="0" d="M159.782,422.511C149.598,438.426,139.375,454.316,129.315,470.309C128.605,471.436,128.683,473.445,129.106,474.827C130.461,479.251,132.151,483.572,133.729,488.29C133.404,488.668,133.061,488.689,132.461,488.682C129.12,480.602,126.19,472.485,122.838,464.545C122.08,462.752,120.082,460.742,118.268,460.245C92.34,453.14,66.347,446.278,39.98,439.316C39.442,438.755,39.293,438.236,39.192,437.437C66.046,443.984,92.853,450.81,120.303,457.8C118.114,452.041,116.065,446.526,113.925,441.047C109.091,428.673,104.333,416.267,99.236,404.001C98.335,401.833,96.278,399.628,94.184,398.555C77.243,389.875,59.394,383.697,40.303,380.031C39.403,379.563,38.905,379.062,38.293,378.314C45.132,379.514,52.286,380.34,58.991,382.538C71.407,386.608,83.561,391.48,95.907,396.049C95.67,395.262,95.407,394.035,94.94,392.891C88.722,377.666,82.541,362.425,76.156,347.27C75.328,345.303,73.753,342.938,71.94,342.21C54.391,335.161,36.718,328.423,18.696,321.538C18.029,320.693,17.746,319.905,17.685,318.98C35.557,325.631,53.206,332.418,71.411,339.477C72.102,339.347,72.239,338.945,72.375,338.542C61.683,312.288,49.625,286.701,34.875,262.028C35.17,261.357,35.705,260.971,36.64,260.978C47.023,281.267,57.007,301.164,67.279,321.322C68.329,321.724,69.091,321.866,69.85,322.402C70.061,324.705,69.869,326.778,70.559,328.496C73.957,336.959,77.664,345.297,81.123,353.736C89.272,373.617,97.342,393.53,105.501,413.569C110.498,404.092,121.674,365.392,126.263,341.839C126.807,342.694,127.351,343.548,127.928,344.719C127.276,347.946,126.593,350.857,125.687,354.476C119.756,374.407,113.952,393.604,108.434,412.881C107.578,415.874,108.025,419.24,107.87,422.433C108.697,422.608,109.524,422.782,110.35,422.957C117.24,407.577,124.13,392.197,131.02,376.818C131.382,377.303,131.745,377.788,132.046,378.953C125.336,393.925,118.6,408.178,112.139,422.555C111.251,424.532,110.982,427.396,111.704,429.387C116.113,441.557,120.883,453.596,125.56,465.669C125.992,466.785,126.609,467.829,127.898,470.446C138.542,452.853,148.501,436.394,158.618,420.13C159.111,421.054,159.447,421.782,159.782,422.511ZZ" style="fill: rgb(78, 42, 24);"/></g></g><g id="shape-2c732a3d-cf8c-808c-8001-ba4fb1b7e44e"><g id="fills-2c732a3d-cf8c-808c-8001-ba4fb1b7e44e"><path opacity="1.000000" stroke="none" rx="0" ry="0" d="M430.678,160.834C434.624,173.55,438.277,186.449,441.992,199.331C443.298,203.86,444.757,208.346,446.342,213.486C460.503,186.374,474.301,159.957,488.117,133.162C488.754,132.924,489.371,133.064,490.114,133.533C469.343,175.082,448.447,216.301,427.557,257.523C427.107,258.41,426.727,259.332,425.681,261.626C446.868,254.485,467.023,247.691,487.562,240.915C487.674,241.623,487.404,242.313,486.518,243.245C466.502,249.933,447.095,256.361,427.713,262.862C426.384,263.308,424.679,264.014,424.107,265.102C421.652,269.776,419.556,274.638,416.844,280.476C423.412,279.316,428.939,278.451,434.419,277.351C449.569,274.311,464.699,271.172,479.837,268.073C479.663,268.566,479.489,269.059,478.895,269.8C478.263,270.279,478.051,270.512,477.838,270.745C477.838,270.745,477.814,270.743,477.808,270.73C463.488,273.597,449.178,276.497,434.858,279.349C430.297,280.258,425.74,281.32,421.127,281.795C417.222,282.196,415.022,283.795,413.418,287.49C404.101,308.968,394.521,330.332,385.049,351.744C384.397,353.217,383.907,354.762,383.483,355.894C402.059,355.894,420.464,355.894,439.301,356.028C439.331,356.699,438.93,357.235,437.856,357.827C419.932,358.184,402.679,358.435,385.432,358.88C383.968,358.917,381.83,359.885,381.22,361.054C379.172,364.976,377.675,369.185,375.789,373.713C382.075,374.462,387.892,375.566,393.74,375.763C404.482,376.124,415.242,375.95,425.995,375.999C425.854,376.389,425.714,376.78,424.975,377.245C408.975,376.907,393.572,376.577,378.179,376.003C375.506,375.903,374.404,376.764,373.457,379.115C370.857,385.569,367.976,391.91,365.206,398.295C365.492,396.15,365.778,394.006,366.355,391.246C374.439,372.133,382.286,353.658,389.943,335.104C390.746,333.159,391.218,330.435,390.493,328.607C386.343,318.13,381.785,307.814,377.365,297.444C377.245,295.894,377.125,294.344,377.31,292.587C382.56,304.126,387.505,315.873,392.582,327.936C393.328,327.091,393.616,326.88,393.748,326.597C410.473,290.809,427.205,255.024,443.83,219.189C444.513,217.715,444.682,215.633,444.248,214.067C439.511,196.952,434.605,179.884,429.746,162.803C429.967,162.205,430.188,161.608,430.678,160.834ZZ" style="fill: rgb(77, 40, 23);"/></g></g><g id="shape-2c732a3d-cf8c-808c-8001-ba4fb1b82c5e"><g id="fills-2c732a3d-cf8c-808c-8001-ba4fb1b82c5e"><path opacity="1.000000" stroke="none" rx="0" ry="0" d="M159.938,422.879C159.447,421.782,159.111,421.054,158.508,419.717C158.13,417.948,158.021,416.788,157.911,415.628C169.236,429.319,180.468,443.09,191.918,456.676C200.802,467.217,209.96,477.529,219.128,488.24C206.514,488.598,193.769,488.658,180.569,488.655C178.351,481.389,176.975,474.064,174.742,467.009C170.1,452.346,165.004,437.827,159.938,422.879ZZ" style="fill: rgb(86, 103, 253);"/></g></g><g id="shape-2c732a3d-cf8c-808c-8001-ba4fb1b8785f"><g id="fills-2c732a3d-cf8c-808c-8001-ba4fb1b8785f"><path opacity="1.000000" stroke="none" rx="0" ry="0" d="M66.992,321.061C57.007,301.164,47.023,281.267,36.998,261C41.674,259.718,46.391,258.807,51.564,257.865C61.277,259.186,69.734,262.434,77.162,269.125C74.439,285.847,71.624,301.845,68.712,317.825C68.503,318.97,67.582,319.985,66.992,321.061ZZ" style="fill: rgb(221, 211, 146);"/></g></g><g id="shape-2c732a3d-cf8c-808c-8001-ba4fb1b87860"><g id="fills-2c732a3d-cf8c-808c-8001-ba4fb1b87860"><path opacity="1.000000" stroke="none" rx="0" ry="0" d="M479.926,267.694C464.699,271.172,449.569,274.311,434.419,277.351C428.939,278.451,423.412,279.316,416.844,280.476C419.556,274.638,421.652,269.776,424.107,265.102C424.679,264.014,426.384,263.308,427.713,262.862C447.095,256.361,466.502,249.933,486.284,243.426C484.448,251.348,482.232,259.331,479.926,267.694ZZ" style="fill: rgb(221, 210, 145);"/></g></g><g id="shape-2c732a3d-cf8c-808c-8001-ba4fb1b8adbe"><g id="fills-2c732a3d-cf8c-808c-8001-ba4fb1b8adbe"><path opacity="1.000000" stroke="none" rx="0" ry="0" d="M426.299,375.841C415.242,375.95,404.482,376.124,393.74,375.763C387.892,375.566,382.075,374.462,375.789,373.713C377.675,369.185,379.172,364.976,381.22,361.054C381.83,359.885,383.968,358.917,385.432,358.88C402.679,358.435,419.932,358.184,437.634,357.947C437.835,358.763,437.584,359.514,437.214,360.535C433.597,365.764,430.1,370.724,426.299,375.841ZZ" style="fill: rgb(220, 210, 145);"/></g></g><g id="shape-2c732a3d-cf8c-808c-8001-ba4fb1b8c182"><g id="fills-2c732a3d-cf8c-808c-8001-ba4fb1b8c182"><path opacity="1.000000" stroke="none" rx="0" ry="0" d="M52.096,462.351C63.602,470.626,75.061,479.372,86.696,488.369C75.567,488.62,64.263,488.62,52.05,488.62C52.05,479.944,52.05,471.383,52.096,462.351ZZ" style="fill: rgb(86, 103, 253);"/></g></g><g id="shape-2c732a3d-cf8c-808c-8001-ba4fb1b90a33"><g id="fills-2c732a3d-cf8c-808c-8001-ba4fb1b90a33"><path opacity="1.000000" stroke="none" rx="0" ry="0" d="M52.105,399.349C56.404,403.427,60.654,407.976,65.271,412.917C60.863,414.659,56.847,416.246,52.477,417.879C52.101,411.89,52.079,405.854,52.105,399.349ZZ" style="fill: rgb(86, 103, 253);"/></g></g><g id="shape-2c732a3d-cf8c-808c-8001-ba4fb1b90a34"><g id="fills-2c732a3d-cf8c-808c-8001-ba4fb1b90a34"><path opacity="1.000000" stroke="none" rx="0" ry="0" d="M478.11,270.8C478.051,270.512,478.263,270.279,478.736,270.015C478.791,270.274,478.586,270.564,478.11,270.8ZZ" style="fill: rgb(222, 212, 147);"/></g></g><g id="shape-2c732a3d-cf8c-808c-8001-ba4fb1ba7a77"><g id="fills-2c732a3d-cf8c-808c-8001-ba4fb1ba7a77"><path opacity="1.000000" stroke="none" rx="0" ry="0" d="M161.551,237.84C152.933,227.209,144.314,216.579,135.352,205.722C135.008,205.494,135.036,205.086,135.036,205.086C131.25,198.496,127.336,191.975,123.728,185.289C121.684,181.501,119.826,177.551,118.427,173.487C112.48,156.218,123.669,141.498,142.576,142.614C147.324,160.244,151.693,177.473,155.533,194.819C156.275,198.17,157.65,199.289,160.528,199.578C166.648,200.193,172.772,200.77,179.127,201.511C179.908,201.671,180.457,201.683,181.435,201.78C196.475,202.56,211.081,203.333,225.697,203.859C227.684,203.931,229.715,202.773,231.957,202.116C234.57,205.544,270.278,204.213,308.179,198.838C308.67,198.843,308.867,198.828,309.448,198.765C317.528,197.074,325.223,195.431,332.919,193.789C333.585,231.135,334.25,268.481,334.534,306.294C333.337,306.904,332.461,306.902,331.715,307.212C313.905,314.607,295.139,317.842,276.128,319.962C261.673,321.573,247.216,323.184,232.735,324.519C224.87,325.245,216.952,325.394,209.021,325.366C209.919,313.827,204.663,306.144,195.462,300.749C191.359,298.344,187.101,296.203,183.631,294.33C185.249,289.529,187.313,285.429,187.962,281.115C190.26,265.835,176.584,243.788,161.551,237.84ZM191.681,253.465C193.119,249.048,196.202,246.395,200.76,246.062C204.7,245.774,208.501,246.345,209.009,251.627C209.047,252.018,210.773,252.698,211.421,252.457C212.121,252.196,213.008,250.896,212.869,250.253C212.609,249.046,211.856,247.806,210.98,246.894C206.071,241.784,197.434,241.982,192.096,247.229C186.548,252.682,186.515,261.041,192.022,266.413C197.374,271.635,206.74,271.812,211.421,266.677C212.062,265.973,212.145,264.761,212.486,263.785C206.694,267.2,201.411,269.231,195.669,265.55C191.615,262.951,190.28,258.951,191.681,253.465ZM287.633,266.592C289.513,265.103,291.393,263.613,293.273,262.124C292.961,261.678,292.65,261.232,292.339,260.786C289.986,261.936,287.681,263.871,285.268,264.015C282.83,264.16,280.286,262.53,277.788,261.678C277.94,261.093,278.092,260.509,278.243,259.925C282.127,259.245,286.008,258.548,289.896,257.89C293.125,257.344,294.085,255.229,291.986,253.076C289.848,250.885,286.951,248.713,284.07,248.147C280.298,247.406,277.091,249.702,275.287,253.337C271.729,260.507,278.292,269.183,287.633,266.592ZM302.789,259.082C301.623,258.546,300.456,258.01,299.29,257.474C304.232,255.033,307.899,254.009,311.619,253.251C315.629,252.433,315.541,250.359,313.599,247.603C310.95,243.843,307.199,242.904,303.029,244.139C298.939,245.35,296.698,248.527,296.513,252.674C296.308,257.272,298.554,260.638,303.012,262.224C307.454,263.805,311.182,262.468,314.17,259.031C314.763,258.35,314.764,257.154,314.812,256.988C310.907,257.85,307.173,258.676,302.789,259.082ZM217.271,263.839C217.954,265.159,218.446,266.631,219.354,267.773C222.408,271.612,227.963,272.765,232.476,270.49C236.424,268.5,238.497,265.264,237.923,260.748C237.373,256.428,233.313,252.848,228.62,252.298C222.34,251.561,217.605,256.002,217.271,263.839ZM245.723,271.048C247.838,270.856,249.952,270.665,253.177,270.373C246.399,265.756,249.26,259.975,248.046,255.414C250.287,254.607,251.91,254.022,253.534,253.437C253.437,253.059,253.34,252.68,253.244,252.302C251.557,252.048,249.871,251.794,247.716,251.47C248.076,249.658,248.387,248.087,248.636,246.831C250.97,247.288,252.523,247.592,254.075,247.896C254.151,247.012,254.496,245.447,254.259,245.353C252.546,244.676,250.484,243.559,248.985,244.027C247.433,244.511,246.164,246.485,245.184,248.064C244.057,249.879,243.384,251.975,242.457,254.076C246.298,256.477,247.233,264.988,243.647,269.086C243.49,269.266,244.423,270.398,245.723,271.048ZM259.852,269.405C262.835,269.405,265.819,269.405,268.802,269.405C262.292,264.805,266.215,258.492,263.905,254.014C266.137,253.242,267.738,252.688,269.339,252.134C269.315,251.727,269.292,251.32,269.268,250.914C267.548,250.72,265.828,250.527,263.638,250.281C263.9,248.458,264.135,246.815,264.414,244.874C265.485,245.297,265.902,245.467,266.323,245.626C267.312,245.999,268.286,246.477,269.308,246.629C269.485,246.656,270.316,244.979,270.073,244.635C269.372,243.643,268.362,242.374,267.32,242.213C264.115,241.718,261.974,243.29,260.991,246.451C260.311,248.637,259.479,250.775,258.634,253.162C262.774,255.639,263.921,265.049,259.852,269.405ZZ" style="fill: rgb(254, 175, 70);"/></g></g><g id="shape-2c732a3d-cf8c-808c-8001-ba4fb1bbfc1d"><g id="fills-2c732a3d-cf8c-808c-8001-ba4fb1bbfc1d"><path opacity="1.000000" stroke="none" rx="0" ry="0" d="M307.884,198.818C270.278,204.213,234.57,205.544,231.957,202.116C229.715,202.773,227.684,203.931,225.697,203.859C211.081,203.333,196.475,202.56,181.434,201.448C180.863,200.224,180.724,199.417,180.347,197.233C179.557,199.481,179.226,200.422,178.895,201.363C172.772,200.77,166.648,200.193,160.528,199.578C157.65,199.289,156.275,198.17,155.533,194.819C151.693,177.473,147.324,160.244,143.005,142.659C142.599,140.787,142.328,139.23,142.255,137.206C142.683,136.596,142.854,136.402,143.379,136.118C150.526,136.795,157.261,137.511,164.05,138.562C164.904,141.231,165.705,143.565,166.655,146.208C166.991,147.081,167.178,147.643,167.366,148.206C167.601,148.11,167.836,148.014,168.071,147.918C167.711,147.081,167.351,146.244,166.997,145.037C166.673,142.529,166.342,140.39,166.441,138.152C191.595,139.556,216.251,138.791,240.842,135.853C248.23,134.97,255.615,134.056,263.049,133.426C263.731,133.516,264.365,133.336,265.381,133.043C267.619,132.312,269.448,131.593,271.335,131.088C291.258,125.761,311.19,120.468,331.12,115.165C331.435,131.636,331.708,148.107,332.086,164.577C332.265,172.387,332.645,180.193,332.961,188.441C332.987,188.882,332.93,188.962,332.748,189.043C332.361,189.412,332.423,189.652,332.753,189.843C332.804,190.896,332.855,191.948,332.912,193.395C325.223,195.431,317.528,197.074,309.421,198.306C309.015,196.896,308.995,195.896,309.03,194.897C309.341,185.759,309.714,176.623,309.917,167.483C309.944,166.284,309.119,165.067,308.689,163.858C308.42,164.083,308.152,164.308,307.884,164.533C307.884,175.961,307.884,187.389,307.884,198.818ZM269.059,164.915C268.166,158.744,267.273,152.573,266.38,146.401C266.045,146.451,265.71,146.501,265.374,146.551C266.09,153.849,266.805,161.148,267.521,168.446C267.857,168.437,268.194,168.428,268.531,168.418C268.667,167.5,268.804,166.581,269.059,164.915ZM269.36,177.467C268.973,178.351,268.586,179.236,268.199,180.12C268.618,180.224,269.036,180.328,269.455,180.433C269.566,179.605,269.676,178.777,269.36,177.467ZM269.536,190.651C269.48,191.563,269.423,192.475,269.367,193.388C269.807,193.373,270.246,193.358,270.686,193.343C270.503,192.492,270.319,191.64,269.536,190.651ZM309.275,141.792C309.467,142.336,309.66,142.88,309.852,143.424C310.131,143.296,310.41,143.169,310.689,143.042C310.363,142.482,310.037,141.922,309.275,141.792ZM264.711,139.367C264.599,139.946,264.487,140.525,264.375,141.104C264.786,141.109,265.197,141.114,265.608,141.119C265.51,140.538,265.412,139.956,264.711,139.367ZM229.46,173.73C229.412,173.298,229.364,172.866,229.316,172.434C228.944,172.612,228.572,172.79,228.201,172.968C228.489,173.352,228.777,173.735,229.46,173.73ZM226.226,147.304C225.881,147.819,225.536,148.334,225.19,148.849C225.433,148.95,225.869,149.168,225.89,149.133C226.174,148.667,226.399,148.166,226.226,147.304ZM232.46,198.73C232.412,198.298,232.364,197.866,232.316,197.434C231.944,197.612,231.572,197.79,231.2,197.968C231.489,198.352,231.777,198.735,232.46,198.73ZM226.504,157.212C226.879,156.782,227.265,156.361,227.599,155.902C227.618,155.876,227.206,155.537,226.994,155.344C226.714,155.826,226.434,156.309,226.504,157.212ZM229.105,181.262C229.374,181.555,229.644,181.849,229.913,182.142C230.106,181.609,230.299,181.076,230.493,180.543C230.08,180.602,229.667,180.661,229.105,181.262ZM177.496,185.61C177.121,186.039,176.735,186.46,176.402,186.919C176.383,186.944,176.795,187.283,177.007,187.476C177.286,186.994,177.566,186.512,177.496,185.61ZM311.461,128.061C311.565,127.347,311.669,126.632,311.773,125.918C311.553,125.906,311.333,125.895,311.112,125.884C311.112,126.479,311.112,127.074,311.461,128.061ZM178.883,190.08C178.783,189.949,178.704,189.741,178.578,189.708C178.455,189.676,178.168,189.805,178.156,189.892C178.078,190.446,178.056,191.008,178.016,191.567C178.316,191.236,178.615,190.905,178.883,190.08ZM175.018,175.544C174.779,175.268,174.54,174.992,174.301,174.716C174.31,175.471,174.319,176.227,174.328,176.982C174.561,176.706,174.795,176.43,175.018,175.544ZM179.045,194.596C178.901,194.834,178.757,195.072,178.613,195.31C178.859,195.398,179.104,195.486,179.35,195.574C179.391,195.22,179.432,194.867,179.045,194.596ZM175.896,182.617C176.168,182.363,176.445,182.112,176.698,181.84C176.712,181.825,176.533,181.629,176.443,181.517C176.158,181.784,175.874,182.05,175.896,182.617ZM168.884,152.016C168.694,151.566,168.504,151.116,168.314,150.666C168.364,151.243,168.415,151.819,168.884,152.016ZM310.468,152.151C310.596,151.761,310.745,151.375,310.835,150.976C310.852,150.897,310.639,150.766,310.532,150.659C310.405,151.05,310.277,151.441,310.468,152.151ZM169.111,154.849C169.187,155.328,169.262,155.807,169.338,156.286C169.555,156.234,169.772,156.182,169.989,156.13C169.837,155.577,169.684,155.024,169.111,154.849ZM170.985,159.412C170.85,159.126,170.714,158.841,170.579,158.555C170.404,158.918,170.229,159.281,170.054,159.645C170.337,159.755,170.62,159.865,170.985,159.412ZM171.887,162.867C171.773,162.746,171.676,162.575,171.536,162.525C171.461,162.497,171.2,162.699,171.212,162.76C171.317,163.28,171.465,163.792,171.6,164.306C171.728,164.015,171.856,163.724,171.887,162.867ZM173.888,170.86C173.773,170.739,173.676,170.569,173.537,170.518C173.461,170.491,173.201,170.693,173.213,170.753C173.317,171.273,173.465,171.783,173.6,172.297C173.728,172.006,173.856,171.715,173.888,170.86ZM172.528,166.463C172.446,167.038,172.365,167.613,172.283,168.187C172.488,167.755,172.693,167.324,172.528,166.463ZM231.755,188.736C231.588,188.791,231.421,188.846,231.254,188.902C231.422,188.956,231.59,189.01,231.755,188.736ZM228.525,163.539C228.47,163.751,228.416,163.963,228.362,164.175C228.495,164.039,228.629,163.903,228.525,163.539ZZ" style="fill: rgb(255, 227, 215);"/></g></g><g id="shape-2c732a3d-cf8c-808c-8001-ba4fb1bc5fe8"><g id="fills-2c732a3d-cf8c-808c-8001-ba4fb1bc5fe8"><path opacity="1.000000" stroke="none" rx="0" ry="0" d="M429.482,163.012C434.605,179.884,439.511,196.952,444.248,214.067C444.682,215.633,444.513,217.715,443.83,219.189C427.205,255.024,410.473,290.809,393.748,326.597C393.616,326.88,393.328,327.091,392.582,327.936C387.505,315.873,382.56,304.126,377.331,292.194C374.55,275.686,372.06,259.362,369.549,243.041C369.072,239.942,368.512,236.856,367.996,233.345C369.323,227.662,370.235,222.25,372.061,217.165C374.858,209.38,377.663,201.483,381.595,194.248C386.886,184.515,397.336,184.417,403.731,193.605C405.977,196.832,407.489,200.57,408.989,203.418C415.606,190.269,422.413,176.745,429.482,163.012ZZ" style="fill: rgb(222, 212, 147);"/></g></g><g id="shape-2c732a3d-cf8c-808c-8001-ba4fb1bcbd5f"><g id="fills-2c732a3d-cf8c-808c-8001-ba4fb1bcbd5f"><path opacity="1.000000" stroke="none" rx="0" ry="0" d="M209.058,325.803C216.952,325.394,224.87,325.245,232.735,324.519C247.216,323.184,261.673,321.573,276.128,319.962C295.139,317.842,313.905,314.607,331.715,307.212C332.461,306.902,333.337,306.904,334.54,306.75C337.098,316.887,331.57,322.386,323.618,327.364C310.647,335.485,296.898,341.289,281.312,344.726C281.095,339.871,280.89,335.289,280.684,330.708C280.153,330.749,279.621,330.789,279.09,330.83C279.405,335.283,279.72,339.737,279.719,344.635C278.897,345.339,278.391,345.599,277.886,345.859C270.813,346.649,263.75,347.556,256.661,348.156C254.568,348.333,252.399,347.413,250.27,347.441C249.043,347.458,247.816,348.826,246.607,348.799C238.316,348.612,230.023,348.325,221.75,347.772C220.489,347.687,219.331,346.057,218.441,345.381C214.256,349.198,209.407,345.615,204.149,345.771C202.113,344.867,200.811,344.073,199.254,343.126C205.246,338.697,207.312,332.337,209.058,325.803ZM249.613,340.183C249.388,339.683,249.178,339.174,248.908,338.7C248.887,338.664,248.444,338.868,248.197,338.96C248.528,339.487,248.858,340.015,249.613,340.183ZM247.176,330.983C247.438,331.478,247.7,331.974,247.963,332.469C248.185,332.289,248.613,331.97,248.599,331.949C248.28,331.475,247.912,331.034,247.176,330.983ZM215.387,338.114C215.784,338.118,216.182,338.123,216.579,338.127C216.581,337.962,216.593,337.654,216.582,337.653C216.187,337.622,215.789,337.621,215.387,338.114ZM217.733,340.85C217.388,340.875,217.042,340.899,216.697,340.924C216.769,341.167,216.842,341.409,216.914,341.651C217.166,341.531,217.418,341.411,217.733,340.85ZZ" style="fill: rgb(255, 226, 214);"/></g></g><g id="shape-2c732a3d-cf8c-808c-8001-ba4fb1bd2c2e"><g id="fills-2c732a3d-cf8c-808c-8001-ba4fb1bd2c2e"><path opacity="1.000000" stroke="none" rx="0" ry="0" d="M398.991,413.881C400.478,413.881,401.964,413.881,404.902,413.881C399.044,419.271,394.099,423.821,388.663,428.822C393.908,433.692,399.044,438.459,405.013,444.001C397.171,443.568,390.455,443.198,383.1,442.792C383.1,446.424,383.1,449.665,383.141,453.364C383.435,457.214,383.688,460.607,384.047,465.409C378.46,459.382,373.78,454.333,368.67,448.82C363.977,453.89,359.539,458.686,354.419,464.218C354.419,456.733,354.419,450.265,354.419,442.869C347.719,443.239,340.878,443.618,332.45,444.084C338.284,438.635,343.132,434.106,348.651,428.95C343.425,424.015,338.484,419.349,332.511,413.708C340.748,414.163,347.571,414.54,354.414,414.918C354.414,407.738,354.414,401.231,354.414,394.724C354.76,394.405,355.105,394.085,355.451,393.766C358.397,397.07,361.343,400.373,364.66,404.188C367.002,408.719,369.241,408.703,372.084,405.409C375.645,401.283,379.42,397.343,383.451,392.943C383.451,400.79,383.451,407.632,383.451,415.033C388.857,414.632,393.924,414.257,398.991,413.881ZZ" style="fill: rgb(254, 179, 64);"/></g></g><g id="shape-2c732a3d-cf8c-808c-8001-ba4fb1bd2c2f"><g id="fills-2c732a3d-cf8c-808c-8001-ba4fb1bd2c2f"><path opacity="1.000000" stroke="none" rx="0" ry="0" d="M157.788,415.342C158.021,416.788,158.13,417.948,158.35,419.522C148.501,436.394,138.542,452.853,127.898,470.446C126.609,467.829,125.992,466.785,125.56,465.669C120.883,453.596,116.113,441.557,111.704,429.387C110.982,427.396,111.251,424.532,112.139,422.555C118.6,408.178,125.336,393.925,132.111,379.276C140.712,390.965,149.188,403.01,157.788,415.342ZZ" style="fill: rgb(222, 211, 146);"/></g></g><g id="shape-2c732a3d-cf8c-808c-8001-ba4fb1bd8d3e"><g id="fills-2c732a3d-cf8c-808c-8001-ba4fb1bd8d3e"><path opacity="1.000000" stroke="none" rx="0" ry="0" d="M399.103,413.56C393.924,414.257,388.857,414.632,383.451,415.033C383.451,407.632,383.451,400.79,383.451,392.943C379.42,397.343,375.645,401.283,372.084,405.409C369.241,408.703,367.002,408.719,364.941,404.361C364.938,402.436,365.023,400.848,365.157,398.778C367.976,391.91,370.857,385.569,373.457,379.115C374.404,376.764,375.506,375.903,378.179,376.003C393.572,376.577,408.975,376.907,424.875,377.437C417.403,388.357,409.429,399.157,401.467,409.964C400.681,411.031,399.964,412.147,399.103,413.56ZZ" style="fill: rgb(222, 212, 146);"/></g></g><g id="shape-2c732a3d-cf8c-808c-8001-ba4fb1be0e86"><g id="fills-2c732a3d-cf8c-808c-8001-ba4fb1be0e86"><path opacity="1.000000" stroke="none" rx="0" ry="0" d="M209.021,325.366C207.312,332.337,205.246,338.697,199.254,343.126C200.811,344.073,202.113,344.867,203.72,345.789C204.409,348.123,205.754,350.743,205.011,352.46C202.145,359.08,199.032,365.678,195.181,371.759C192.611,375.818,187.714,375.811,183.329,374.92C180.102,374.265,176.706,373.51,173.894,371.908C164.225,366.396,153.753,364.363,142.85,363.739C141.919,363.686,141.006,363.298,140.071,363.062C140.223,362.486,140.298,361.936,140.378,361.935C150.243,361.866,159.8,363.124,168.96,367.247C174.35,369.673,180.063,371.523,185.795,372.996C189.601,373.974,193.26,372.379,195.16,368.784C198.077,363.264,200.729,357.58,203.059,351.791C203.542,350.589,202.129,348.624,201.59,347.01C200.282,347.815,198.493,348.311,197.746,349.476C194.09,355.17,190.711,361.043,187.212,366.89C173.124,363.779,167.798,351.389,176.354,339.614C164.025,335.991,151.949,332.442,139.493,328.878C138.543,328.552,137.998,328.178,137.399,327.938C116.917,319.735,114.064,299.069,131.526,285.305C132.562,284.489,133.644,283.732,134.99,282.736C129.247,273.082,129.028,263.57,135.934,254.403C142.251,246.019,150.114,239.958,161.127,237.934C176.584,243.788,190.26,265.835,187.962,281.115C187.313,285.429,185.249,289.529,183.631,294.33C187.101,296.203,191.359,298.344,195.462,300.749C204.663,306.144,209.919,313.827,209.021,325.366ZM204.006,312.916C204.006,312.916,204.042,312.942,204.313,312.243C199.472,303.098,190.019,300.314,181.713,295.988C181.067,295.651,179.781,296.165,178.961,296.601C173.823,299.336,168.249,300.056,163.039,297.919C154.976,294.612,147.144,290.662,139.487,286.485C137.106,285.187,135.616,284.57,133.378,286.3C125.34,292.513,121.543,301.094,122.415,310.733C123.186,319.244,130.422,323.202,137.896,325.968C138.674,326.256,139.448,326.559,140.24,326.804C155.616,331.565,170.997,336.311,186.372,341.076C194.401,343.564,198.848,342.436,202.659,336.896C207.896,329.282,208.494,318.427,204.006,312.916ZM158.348,240.763C147.916,243.545,140.453,250.176,135.253,259.319C130.712,267.305,132.176,277.555,138.595,283.195C146.343,290.002,155.27,294.794,165.519,296.616C176.325,298.537,184.089,292.832,185.94,281.942C187.58,272.295,185.13,263.639,178.842,256.343C174.291,251.064,169.145,246.273,164.006,241.544C162.957,240.578,160.758,240.862,158.348,240.763ZM174.483,354.362C176.852,359.679,181.087,362.796,186.111,364.659C190.017,358.065,193.774,351.722,197.465,345.491C192.892,344.422,188.097,343.466,183.4,342.157C178.519,340.797,174.883,342.685,174.011,347.698C173.68,349.597,174.111,351.629,174.483,354.362ZZ" style="fill: rgb(82, 34, 23);"/></g></g><g id="shape-2c732a3d-cf8c-808c-8001-ba4fb1be4552"><g id="fills-2c732a3d-cf8c-808c-8001-ba4fb1be4552"><path opacity="1.000000" stroke="none" rx="0" ry="0" d="M377.046,297.759C381.785,307.814,386.343,318.13,390.493,328.607C391.218,330.435,390.746,333.159,389.943,335.104C382.286,353.658,374.439,372.133,366.378,390.877C367.17,380.264,368.147,369.396,369.311,358.549C370.44,348.033,371.72,337.533,373.01,327.035C374.196,317.375,375.484,307.727,377.046,297.759ZZ" style="fill: rgb(221, 210, 145);"/></g></g><g id="shape-2c732a3d-cf8c-808c-8001-ba4fb1bebc41"><g id="fills-2c732a3d-cf8c-808c-8001-ba4fb1bebc41"><path opacity="1.000000" stroke="none" rx="0" ry="0" d="M130.97,376.462C124.13,392.197,117.24,407.577,110.35,422.957C109.524,422.782,108.697,422.608,107.87,422.433C108.025,419.24,107.578,415.874,108.434,412.881C113.952,393.604,119.756,374.407,125.708,354.85C125.128,362.284,127.411,369.336,130.97,376.462ZZ" style="fill: rgb(218, 207, 143);"/></g></g><g id="shape-2c732a3d-cf8c-808c-8001-ba4fb1bebc42"><g id="fills-2c732a3d-cf8c-808c-8001-ba4fb1bebc42"><path opacity="1.000000" stroke="none" rx="0" ry="0" d="M364.759,216.762C364.857,217.336,364.954,217.911,365.037,218.926C353.272,211.25,348.218,195.488,352.529,179.459C353.204,179.393,353.704,179.726,354.143,180.733C350.748,194.84,354.036,206.356,364.061,215.925C364.061,215.925,364.051,215.864,364.086,216.061C364.24,216.545,364.452,216.713,364.759,216.762ZZ" style="fill: rgb(85, 34, 24);"/></g></g><g id="shape-2c732a3d-cf8c-808c-8001-ba4fb1bec2f9"><g id="fills-2c732a3d-cf8c-808c-8001-ba4fb1bec2f9"><path opacity="1.000000" stroke="none" rx="0" ry="0" d="M277.872,346.279C278.391,345.599,278.897,345.339,279.69,345.094C279.481,355.34,278.984,365.57,278.487,375.8C276.903,366.111,276.368,356.42,277.872,346.279ZZ" style="fill: rgb(105, 48, 36);"/></g></g><g id="shape-2c732a3d-cf8c-808c-8001-ba4fb1bec2fa"><g id="fills-2c732a3d-cf8c-808c-8001-ba4fb1bec2fa"><path opacity="1.000000" stroke="none" rx="0" ry="0" d="M332.812,189.636C332.423,189.652,332.361,189.412,332.702,189.061C332.839,188.998,332.872,189.428,332.812,189.636ZZ" style="fill: rgb(254, 226, 214);"/></g></g><g id="shape-2c732a3d-cf8c-808c-8001-ba4fb1bf6237"><g id="fills-2c732a3d-cf8c-808c-8001-ba4fb1bf6237"><path opacity="1.000000" stroke="none" rx="0" ry="0" d="M263.001,133.156C255.615,134.056,248.23,134.97,240.842,135.853C216.251,138.791,191.595,139.556,166.107,138.101C164.894,138.176,164.445,138.201,163.996,138.226C157.261,137.511,150.526,136.795,143.116,136.045C142.261,136.033,142.081,136.056,141.9,136.08C138.82,135.585,135.74,135.089,132.229,134.525C131.57,128.676,130.729,122.833,130.31,116.96C129.996,112.562,132.934,109.428,137.428,109.022C140.548,108.741,143.699,108.808,147.588,108.989C161.223,110.427,174.101,112.47,186.992,112.562C207.589,112.709,228.228,112.088,248.788,110.817C270.927,109.448,292.531,104.75,313.305,96.805C317.855,95.065,322.028,92.338,326.374,90.065C334.893,89.705,337.082,91.766,337.108,100.175C337.114,102.329,336.873,104.514,337.158,106.63C337.751,111.027,336.522,114.03,331.455,115.009C311.19,120.468,291.258,125.761,271.335,131.088C269.448,131.593,267.619,132.312,265.049,132.998C263.89,133.096,263.446,133.126,263.001,133.156ZZ" style="fill: rgb(214, 86, 44);"/></g></g><g id="shape-2c732a3d-cf8c-808c-8001-ba4fb1bfbd97"><g id="fills-2c732a3d-cf8c-808c-8001-ba4fb1bfbd97"><path opacity="1.000000" stroke="none" rx="0" ry="0" d="M126.188,341.477C121.674,365.392,110.498,404.092,105.501,413.569C97.342,393.53,89.272,373.617,81.123,353.736C77.664,345.297,73.957,336.959,70.559,328.496C69.869,326.778,70.061,324.705,69.952,322.071C73.157,304.197,76.257,287.048,79.356,269.899C89.474,277.264,97.077,286.891,103.085,297.66C111.071,311.972,118.465,326.614,126.188,341.477ZZ" style="fill: rgb(222, 212, 146);"/></g></g><g id="shape-2c732a3d-cf8c-808c-8001-ba4fb1bff811"><g id="fills-2c732a3d-cf8c-808c-8001-ba4fb1bff811"><path opacity="1.000000" stroke="none" rx="0" ry="0" d="M324.477,70C324.765,76.165,325.054,82.331,324.97,89.107C319.539,91.819,314.543,94.091,309.411,95.996C281.516,106.351,252.328,110.118,222.913,110.509C198.222,110.838,173.498,108.627,148.788,107.541C148.639,100.194,148.49,92.847,148.826,85.09C176.273,87.776,203.24,89.526,230.449,88.17C262.724,86.56,294.187,81.514,324.477,70ZZ" style="fill: rgb(212, 84, 43);"/></g></g><g id="shape-2c732a3d-cf8c-808c-8001-ba4fb1c05851"><g id="fills-2c732a3d-cf8c-808c-8001-ba4fb1c05851"><path opacity="1.000000" stroke="none" rx="0" ry="0" d="M134.587,205.046C135.036,205.086,135.008,205.494,135.003,205.699C130.487,210.725,125.976,215.547,121.07,220.791C125.471,224.863,130.419,229.441,136.487,235.055C128.439,234.684,121.644,234.37,114.596,234.044C114.596,241.168,114.596,248.041,114.596,255.56C109.862,250.424,105.331,245.507,100.25,239.994C95.392,245.21,90.704,250.245,85.097,256.265C85.475,248.391,85.8,241.612,86.161,234.095C79.107,234.414,72.417,234.717,65.727,235.02C65.501,234.69,65.275,234.36,65.05,234.03C70.043,229.438,75.037,224.846,80.313,219.994C74.892,215.036,69.802,210.381,63.751,204.847C71.744,205.259,78.563,205.611,86.143,206.002C85.783,198.61,85.449,191.743,85.056,183.657C90.431,189.498,95.083,194.554,100.165,200.077C104.838,195.025,109.4,190.092,114.592,184.479C114.592,191.967,114.592,198.59,114.592,206.011C121.017,205.681,127.578,205.344,134.587,205.046ZZ" style="fill: rgb(253, 179, 64);"/></g></g><g id="shape-2c732a3d-cf8c-808c-8001-ba4fb1c09333"><g id="fills-2c732a3d-cf8c-808c-8001-ba4fb1c09333"><path opacity="1.000000" stroke="none" rx="0" ry="0" d="M148.458,82.154C149.478,73.89,153.702,69.974,161.853,69.918C214.262,69.558,266.67,69.223,319.292,69.201C311.594,71.997,303.833,75.282,295.741,76.782C277.844,80.098,259.863,83.726,241.761,84.984C220.963,86.429,199.989,85.816,179.107,85.368C168.872,85.148,158.673,83.278,148.458,82.154ZM157.488,78.047C163.858,80.8,170.376,80.534,176.857,78.691C178.021,78.36,179.238,76.921,179.624,75.731C179.801,75.186,178.052,73.265,177.134,73.234C170.966,73.026,164.773,72.937,158.619,73.313C156.677,73.432,154.89,75.117,157.488,78.047ZZ" style="fill: rgb(211, 85, 44);"/></g></g><g id="shape-2c732a3d-cf8c-808c-8001-ba4fb1c0c9c3"><g id="fills-2c732a3d-cf8c-808c-8001-ba4fb1c0c9c3"><path opacity="1.000000" stroke="none" rx="0" ry="0" d="M148.305,82.448C158.673,83.278,168.872,85.148,179.107,85.368C199.989,85.816,220.963,86.429,241.761,84.984C259.863,83.726,277.844,80.098,295.741,76.782C303.833,75.282,311.594,71.997,319.756,69.272C321.626,69.124,323.245,69.226,324.67,69.664C294.187,81.514,262.724,86.56,230.449,88.17C203.24,89.526,176.273,87.776,148.902,84.629C148.379,83.966,148.265,83.354,148.305,82.448ZZ" style="fill: rgb(79, 25, 10);"/></g></g><g id="shape-2c732a3d-cf8c-808c-8001-ba4fb1c114bc"><g id="fills-2c732a3d-cf8c-808c-8001-ba4fb1c114bc"><path opacity="1.000000" stroke="none" rx="0" ry="0" d="M148.553,107.669C173.498,108.627,198.222,110.838,222.913,110.509C252.328,110.118,281.516,106.351,309.411,95.996C314.543,94.091,319.539,91.819,324.967,89.54C325.523,89.458,325.71,89.552,326.136,89.856C322.028,92.338,317.855,95.065,313.305,96.805C292.531,104.75,270.927,109.448,248.788,110.817C228.228,112.088,207.589,112.709,186.992,112.562C174.101,112.47,161.223,110.427,148.033,108.966C147.923,108.381,148.12,108.089,148.553,107.669ZZ" style="fill: rgb(77, 24, 9);"/></g></g><g id="shape-2c732a3d-cf8c-808c-8001-ba4fb1c16a25"><g id="fills-2c732a3d-cf8c-808c-8001-ba4fb1c16a25"><path opacity="1.000000" stroke="none" rx="0" ry="0" d="M276.293,49.756C274.881,49.84,273.885,49.886,272.889,49.906C262.402,50.115,262.466,50.118,261.804,60.536C261.646,63.026,260.906,65.479,260.434,67.948C259.733,67.984,259.031,68.02,258.33,68.056C257.882,65.395,257.128,62.744,257.042,60.071C256.738,50.552,256.363,50.17,246.751,49.874C244.135,49.794,241.538,49.114,238.932,48.71C238.918,47.934,238.904,47.157,238.89,46.381C242.244,45.922,245.588,45.211,248.957,45.054C256.175,44.718,256.683,44.257,256.995,36.924C257.134,33.647,257.602,30.384,257.92,27.114C258.578,27.089,259.235,27.064,259.892,27.039C260.478,28.931,261.25,30.789,261.611,32.723C262.295,36.392,261.508,41.366,263.634,43.447C265.786,45.553,270.736,44.729,274.432,45.358C276.277,45.673,278.058,46.366,281.286,47.297C278.862,48.573,277.785,49.14,276.293,49.756ZZ" style="fill: rgb(249, 251, 252);"/></g></g><g id="shape-2c732a3d-cf8c-808c-8001-ba4fb1c1a6eb"><g id="fills-2c732a3d-cf8c-808c-8001-ba4fb1c1a6eb"><path opacity="1.000000" stroke="none" rx="0" ry="0" d="M107.865,118.928C107.48,123.267,109.015,125.175,113.149,125.336C117.323,125.497,121.474,126.255,125.635,126.752C125.688,127.491,125.741,128.23,125.794,128.969C122.315,129.553,118.855,130.345,115.352,130.68C108.181,131.365,108.289,131.272,107.785,138.354C107.541,141.788,106.762,145.185,106.226,148.598C105.573,148.62,104.92,148.641,104.267,148.662C103.84,146.733,103.249,144.822,103.027,142.869C102.765,140.559,102.929,138.204,102.714,135.886C102.395,132.437,100.825,130.624,96.914,130.672C92.92,130.721,88.915,129.91,84.914,129.476C84.58,128.753,84.246,128.029,83.913,127.306C84.839,126.962,85.743,126.512,86.699,126.303C87.825,126.056,88.994,125.969,90.15,125.897C103.275,125.073,102.65,125.618,103.043,112.875C103.097,111.145,103.888,109.437,104.338,107.72C105.031,107.724,105.724,107.728,106.417,107.733C106.896,111.316,107.375,114.9,107.865,118.928ZZ" style="fill: rgb(250, 251, 253);"/></g></g><g id="shape-2c732a3d-cf8c-808c-8001-ba4fb1c1f07c"><g id="fills-2c732a3d-cf8c-808c-8001-ba4fb1c1f07c"><path opacity="1.000000" stroke="none" rx="0" ry="0" d="M375.31,184.058C374.835,180.202,374.209,176.729,374.249,173.263C374.298,168.969,372.111,167.924,368.347,167.82C364.524,167.714,360.715,167.093,356.9,166.698C356.832,166.066,356.764,165.433,356.696,164.801C358.36,164.2,359.982,163.316,361.696,163.069C363.985,162.74,366.347,162.953,368.674,162.848C372.12,162.692,374.137,161.339,374.263,157.4C374.396,153.253,375.227,149.128,375.753,144.993C376.277,144.934,376.802,144.876,377.326,144.817C377.868,145.844,378.604,146.819,378.896,147.913C379.188,149.01,378.939,150.24,379.096,151.388C380.587,162.327,378.302,162.818,390.731,163.023C392.923,163.059,395.101,163.939,397.285,164.43C397.233,165.18,397.181,165.931,397.129,166.681C393.327,167.081,389.533,167.705,385.723,167.816C382.009,167.925,379.677,168.865,379.727,173.181C379.762,176.318,379.379,179.484,378.897,182.593C378.624,184.352,378.545,187.484,375.31,184.058ZZ" style="fill: rgb(250, 251, 253);"/></g></g><g id="shape-2c732a3d-cf8c-808c-8001-ba4fb1c21feb"><g id="fills-2c732a3d-cf8c-808c-8001-ba4fb1c21feb"><path opacity="1.000000" stroke="none" rx="0" ry="0" d="M364.09,215.489C354.036,206.356,350.748,194.84,354.239,180.973C356.474,185.09,359.213,189.469,360.469,194.239C362.257,201.026,362.955,208.101,364.09,215.489ZZ" style="fill: rgb(249, 144, 131);"/></g></g><g id="shape-2c732a3d-cf8c-808c-8001-ba4fb1c27f6f"><g id="fills-2c732a3d-cf8c-808c-8001-ba4fb1c27f6f"><path opacity="1.000000" stroke="none" rx="0" ry="0" d="M79.2,269.653C76.257,287.048,73.157,304.197,69.955,321.677C69.091,321.866,68.329,321.724,67.279,321.322C67.582,319.985,68.503,318.97,68.712,317.825C71.624,301.845,74.439,285.847,77.362,269.431C77.979,269.142,78.511,269.274,79.2,269.653ZZ" style="fill: rgb(81, 45, 26);"/></g></g><g id="shape-2c732a3d-cf8c-808c-8001-ba4fb1c2bd3f"><g id="fills-2c732a3d-cf8c-808c-8001-ba4fb1c2bd3f"><path opacity="1.000000" stroke="none" rx="0" ry="0" d="M141.935,136.287C142.081,136.056,142.261,136.033,142.704,136.083C142.854,136.402,142.683,136.596,142.273,136.816C142.094,136.894,141.969,136.494,141.935,136.287ZZ" style="fill: rgb(255, 225, 212);"/></g></g><g id="shape-2c732a3d-cf8c-808c-8001-ba4fb1c2bd40"><g id="fills-2c732a3d-cf8c-808c-8001-ba4fb1c2bd40"><path opacity="1.000000" stroke="none" rx="0" ry="0" d="M364.714,216.552C364.452,216.713,364.24,216.545,364.056,216.055C364.302,215.898,364.527,216.062,364.714,216.552ZZ" style="fill: rgb(249, 144, 131);"/></g></g><g id="shape-2c732a3d-cf8c-808c-8001-ba4fb1c2f137"><g id="fills-2c732a3d-cf8c-808c-8001-ba4fb1c2f137"><path opacity="1.000000" stroke="none" rx="0" ry="0" d="M72.156,338.765C72.239,338.945,72.102,339.347,71.744,339.603C71.661,339.301,71.798,339.144,72.156,338.765ZZ" style="fill: rgb(222, 212, 146);"/></g></g><g id="shape-2c732a3d-cf8c-808c-8001-ba4fb1c3039f"><g id="fills-2c732a3d-cf8c-808c-8001-ba4fb1c3039f"><path opacity="1.000000" stroke="none" rx="0" ry="0" d="M191.544,253.84C190.28,258.951,191.615,262.951,195.669,265.55C201.411,269.231,206.694,267.2,212.486,263.785C212.145,264.761,212.062,265.973,211.421,266.677C206.74,271.812,197.374,271.635,192.022,266.413C186.515,261.041,186.548,252.682,192.096,247.229C197.434,241.982,206.071,241.784,210.98,246.894C211.856,247.806,212.609,249.046,212.869,250.253C213.008,250.896,212.121,252.196,211.421,252.457C210.773,252.698,209.047,252.018,209.009,251.627C208.501,246.345,204.7,245.774,200.76,246.062C196.202,246.395,193.119,249.048,191.544,253.84ZZ" style="fill: rgb(72, 28, 9);"/></g></g><g id="shape-2c732a3d-cf8c-808c-8001-ba4fb1c36c13"><g id="fills-2c732a3d-cf8c-808c-8001-ba4fb1c36c13"><path opacity="1.000000" stroke="none" rx="0" ry="0" d="M287.241,266.713C278.292,269.183,271.729,260.507,275.287,253.337C277.091,249.702,280.298,247.406,284.07,248.147C286.951,248.713,289.848,250.885,291.986,253.076C294.085,255.229,293.125,257.344,289.896,257.89C286.008,258.548,282.127,259.245,278.243,259.925C278.092,260.509,277.94,261.093,277.788,261.678C280.286,262.53,282.83,264.16,285.268,264.015C287.681,263.871,289.986,261.936,292.339,260.786C292.65,261.232,292.961,261.678,293.273,262.124C291.393,263.613,289.513,265.103,287.241,266.713ZM280.504,256.724C283.441,256.126,286.378,255.529,289.314,254.931C289.422,254.268,289.529,253.604,289.636,252.941C287.426,252.187,285.136,250.681,283.028,250.903C281.154,251.1,279.481,253.212,277.72,254.479C278.381,255.259,279.042,256.039,280.504,256.724ZZ" style="fill: rgb(75, 31, 10);"/></g></g><g id="shape-2c732a3d-cf8c-808c-8001-ba4fb1c382a9"><g id="fills-2c732a3d-cf8c-808c-8001-ba4fb1c382a9"><path opacity="1.000000" stroke="none" rx="0" ry="0" d="M303.113,259.292C307.173,258.676,310.907,257.85,314.812,256.988C314.764,257.154,314.763,258.35,314.17,259.031C311.182,262.468,307.454,263.805,303.012,262.224C298.554,260.638,296.308,257.272,296.513,252.674C296.698,248.527,298.939,245.35,303.029,244.139C307.199,242.904,310.95,243.843,313.599,247.603C315.541,250.359,315.629,252.433,311.619,253.251C307.899,254.009,304.232,255.033,299.29,257.474C300.456,258.01,301.623,258.546,303.113,259.292ZM300.072,249.547C299.85,250.559,299.627,251.571,299.237,253.343C303.755,252.281,307.561,251.387,311.671,250.421C308.007,244.976,305.376,244.787,300.072,249.547ZZ" style="fill: rgb(73, 29, 9);"/></g></g><g id="shape-2c732a3d-cf8c-808c-8001-ba4fb1c3c6cb"><g id="fills-2c732a3d-cf8c-808c-8001-ba4fb1c3c6cb"><path opacity="1.000000" stroke="none" rx="0" ry="0" d="M217.2,263.457C217.605,256.002,222.34,251.561,228.62,252.298C233.313,252.848,237.373,256.428,237.923,260.748C238.497,265.264,236.424,268.5,232.476,270.49C227.963,272.765,222.408,271.612,219.354,267.773C218.446,266.631,217.954,265.159,217.2,263.457ZM221.965,257.389C219.193,260.842,219.341,264.257,222.699,267.058C225.896,269.724,229.492,269.692,232.705,266.923C235.504,264.511,235.91,261.427,233.821,258.426C231.278,254.772,227.774,254.003,223.746,256.003C223.305,256.222,222.925,256.565,221.965,257.389ZZ" style="fill: rgb(74, 30, 9);"/></g></g><g id="shape-2c732a3d-cf8c-808c-8001-ba4fb1c42339"><g id="fills-2c732a3d-cf8c-808c-8001-ba4fb1c42339"><path opacity="1.000000" stroke="none" rx="0" ry="0" d="M245.286,271.067C244.423,270.398,243.49,269.266,243.647,269.086C247.233,264.988,246.298,256.477,242.457,254.076C243.384,251.975,244.057,249.879,245.184,248.064C246.164,246.485,247.433,244.511,248.985,244.027C250.484,243.559,252.546,244.676,254.259,245.353C254.496,245.447,254.151,247.012,254.075,247.896C252.523,247.592,250.97,247.288,248.636,246.831C248.387,248.087,248.076,249.658,247.716,251.47C249.871,251.794,251.557,252.048,253.244,252.302C253.34,252.68,253.437,253.059,253.534,253.437C251.91,254.022,250.287,254.607,248.046,255.414C249.26,259.975,246.399,265.756,253.177,270.373C249.952,270.665,247.838,270.856,245.286,271.067ZZ" style="fill: rgb(75, 30, 10);"/></g></g><g id="shape-2c732a3d-cf8c-808c-8001-ba4fb1c4b335"><g id="fills-2c732a3d-cf8c-808c-8001-ba4fb1c4b335"><path opacity="1.000000" stroke="none" rx="0" ry="0" d="M259.823,269.023C263.921,265.049,262.774,255.639,258.634,253.162C259.479,250.775,260.311,248.637,260.991,246.451C261.974,243.29,264.115,241.718,267.32,242.213C268.362,242.374,269.372,243.643,270.073,244.635C270.316,244.979,269.485,246.656,269.308,246.629C268.286,246.477,267.312,245.999,266.323,245.626C265.902,245.467,265.485,245.297,264.414,244.874C264.135,246.815,263.9,248.458,263.638,250.281C265.828,250.527,267.548,250.72,269.268,250.914C269.292,251.32,269.315,251.727,269.339,252.134C267.738,252.688,266.137,253.242,263.905,254.014C266.215,258.492,262.292,264.805,268.802,269.405C265.819,269.405,262.835,269.405,259.823,269.023ZZ" style="fill: rgb(75, 31, 10);"/></g></g><g id="shape-2c732a3d-cf8c-808c-8001-ba4fb1c4b336"><g id="fills-2c732a3d-cf8c-808c-8001-ba4fb1c4b336"><path opacity="1.000000" stroke="none" rx="0" ry="0" d="M308.179,198.838C307.884,187.389,307.884,175.961,307.884,164.533C308.152,164.308,308.42,164.083,308.689,163.858C309.119,165.067,309.944,166.284,309.917,167.483C309.714,176.623,309.341,185.759,309.03,194.897C308.995,195.896,309.015,196.896,309.036,198.355C308.867,198.828,308.67,198.843,308.179,198.838ZZ" style="fill: rgb(234, 155, 128);"/></g></g><g id="shape-2c732a3d-cf8c-808c-8001-ba4fb1c4ff55"><g id="fills-2c732a3d-cf8c-808c-8001-ba4fb1c4ff55"><path opacity="1.000000" stroke="none" rx="0" ry="0" d="M179.127,201.511C179.226,200.422,179.557,199.481,180.347,197.233C180.724,199.417,180.863,200.224,181.004,201.362C180.457,201.683,179.908,201.671,179.127,201.511ZZ" style="fill: rgb(255, 225, 212);"/></g></g><g id="shape-2c732a3d-cf8c-808c-8001-ba4fb1c511c6"><g id="fills-2c732a3d-cf8c-808c-8001-ba4fb1c511c6"><path opacity="1.000000" stroke="none" rx="0" ry="0" d="M269,165.289C268.804,166.581,268.667,167.5,268.531,168.418C268.194,168.428,267.857,168.437,267.521,168.446C266.805,161.148,266.09,153.849,265.374,146.551C265.71,146.501,266.045,146.451,266.38,146.401C267.273,152.573,268.166,158.744,269,165.289ZZ" style="fill: rgb(235, 158, 132);"/></g></g><g id="shape-2c732a3d-cf8c-808c-8001-ba4fb1c511c7"><g id="fills-2c732a3d-cf8c-808c-8001-ba4fb1c511c7"><path opacity="1.000000" stroke="none" rx="0" ry="0" d="M164.05,138.562C164.445,138.201,164.894,138.176,165.677,138.201C166.342,140.39,166.673,142.529,166.914,145.197C166.824,145.728,166.506,145.898,166.506,145.898C165.705,143.565,164.904,141.231,164.05,138.562ZZ" style="fill: rgb(255, 225, 212);"/></g></g><g id="shape-2c732a3d-cf8c-808c-8001-ba4fb1c5654e"><g id="fills-2c732a3d-cf8c-808c-8001-ba4fb1c5654e"><path opacity="1.000000" stroke="none" rx="0" ry="0" d="M269.574,177.708C269.676,178.777,269.566,179.605,269.455,180.433C269.036,180.328,268.618,180.224,268.199,180.12C268.586,179.236,268.973,178.351,269.574,177.708ZZ" style="fill: rgb(255, 226, 214);"/></g></g><g id="shape-2c732a3d-cf8c-808c-8001-ba4fb1c5654f"><g id="fills-2c732a3d-cf8c-808c-8001-ba4fb1c5654f"><path opacity="1.000000" stroke="none" rx="0" ry="0" d="M269.836,190.72C270.319,191.64,270.503,192.492,270.686,193.343C270.246,193.358,269.807,193.373,269.367,193.388C269.423,192.475,269.48,191.563,269.836,190.72ZZ" style="fill: rgb(255, 226, 214);"/></g></g><g id="shape-2c732a3d-cf8c-808c-8001-ba4fb1c58727"><g id="fills-2c732a3d-cf8c-808c-8001-ba4fb1c58727"><path opacity="1.000000" stroke="none" rx="0" ry="0" d="M309.493,141.577C310.037,141.922,310.363,142.482,310.689,143.042C310.41,143.169,310.131,143.296,309.852,143.424C309.66,142.88,309.467,142.336,309.493,141.577ZZ" style="fill: rgb(254, 226, 214);"/></g></g><g id="shape-2c732a3d-cf8c-808c-8001-ba4fb1c5fdb7"><g id="fills-2c732a3d-cf8c-808c-8001-ba4fb1c5fdb7"><path opacity="1.000000" stroke="none" rx="0" ry="0" d="M265.013,139.37C265.412,139.956,265.51,140.538,265.608,141.119C265.197,141.114,264.786,141.109,264.375,141.104C264.487,140.525,264.599,139.946,265.013,139.37ZZ" style="fill: rgb(255, 226, 214);"/></g></g><g id="shape-2c732a3d-cf8c-808c-8001-ba4fb1c60b67"><g id="fills-2c732a3d-cf8c-808c-8001-ba4fb1c60b67"><path opacity="1.000000" stroke="none" rx="0" ry="0" d="M229.262,173.924C228.777,173.735,228.489,173.352,228.201,172.968C228.572,172.79,228.944,172.612,229.316,172.434C229.364,172.866,229.412,173.298,229.262,173.924ZZ" style="fill: rgb(255, 226, 214);"/></g></g><g id="shape-2c732a3d-cf8c-808c-8001-ba4fb1c60b68"><g id="fills-2c732a3d-cf8c-808c-8001-ba4fb1c60b68"><path opacity="1.000000" stroke="none" rx="0" ry="0" d="M226.433,147.489C226.399,148.166,226.174,148.667,225.89,149.133C225.869,149.168,225.433,148.95,225.19,148.849C225.536,148.334,225.881,147.819,226.433,147.489ZZ" style="fill: rgb(255, 226, 214);"/></g></g><g id="shape-2c732a3d-cf8c-808c-8001-ba4fb1c66343"><g id="fills-2c732a3d-cf8c-808c-8001-ba4fb1c66343"><path opacity="1.000000" stroke="none" rx="0" ry="0" d="M232.262,198.924C231.777,198.735,231.489,198.352,231.2,197.968C231.572,197.79,231.944,197.612,232.316,197.434C232.364,197.866,232.412,198.298,232.262,198.924ZZ" style="fill: rgb(255, 226, 214);"/></g></g><g id="shape-2c732a3d-cf8c-808c-8001-ba4fb1c69305"><g id="fills-2c732a3d-cf8c-808c-8001-ba4fb1c69305"><path opacity="1.000000" stroke="none" rx="0" ry="0" d="M226.329,157.002C226.434,156.309,226.714,155.826,226.994,155.344C227.206,155.537,227.618,155.876,227.599,155.902C227.265,156.361,226.879,156.782,226.329,157.002ZZ" style="fill: rgb(255, 226, 214);"/></g></g><g id="shape-2c732a3d-cf8c-808c-8001-ba4fb1c69306"><g id="fills-2c732a3d-cf8c-808c-8001-ba4fb1c69306"><path opacity="1.000000" stroke="none" rx="0" ry="0" d="M229.18,180.991C229.667,180.661,230.08,180.602,230.493,180.543C230.299,181.076,230.106,181.609,229.913,182.142C229.644,181.849,229.374,181.555,229.18,180.991ZZ" style="fill: rgb(255, 226, 214);"/></g></g><g id="shape-2c732a3d-cf8c-808c-8001-ba4fb1c6cca3"><g id="fills-2c732a3d-cf8c-808c-8001-ba4fb1c6cca3"><path opacity="1.000000" stroke="none" rx="0" ry="0" d="M177.671,185.82C177.566,186.512,177.286,186.994,177.007,187.476C176.795,187.283,176.383,186.944,176.402,186.919C176.735,186.46,177.121,186.039,177.671,185.82ZZ" style="fill: rgb(255, 225, 212);"/></g></g><g id="shape-2c732a3d-cf8c-808c-8001-ba4fb1c70bff"><g id="fills-2c732a3d-cf8c-808c-8001-ba4fb1c70bff"><path opacity="1.000000" stroke="none" rx="0" ry="0" d="M263.049,133.426C263.446,133.126,263.89,133.096,264.667,133.11C264.365,133.336,263.731,133.516,263.049,133.426ZZ" style="fill: rgb(255, 226, 214);"/></g></g><g id="shape-2c732a3d-cf8c-808c-8001-ba4fb1c74fd3"><g id="fills-2c732a3d-cf8c-808c-8001-ba4fb1c74fd3"><path opacity="1.000000" stroke="none" rx="0" ry="0" d="M311.287,127.865C311.112,127.074,311.112,126.479,311.112,125.884C311.333,125.895,311.553,125.906,311.773,125.918C311.669,126.632,311.565,127.347,311.287,127.865ZZ" style="fill: rgb(254, 226, 214);"/></g></g><g id="shape-2c732a3d-cf8c-808c-8001-ba4fb1c74fd4"><g id="fills-2c732a3d-cf8c-808c-8001-ba4fb1c74fd4"><path opacity="1.000000" stroke="none" rx="0" ry="0" d="M178.899,190.327C178.615,190.905,178.316,191.236,178.016,191.567C178.056,191.008,178.078,190.446,178.156,189.892C178.168,189.805,178.455,189.676,178.578,189.708C178.704,189.741,178.783,189.949,178.899,190.327ZZ" style="fill: rgb(255, 225, 212);"/></g></g><g id="shape-2c732a3d-cf8c-808c-8001-ba4fb1c78083"><g id="fills-2c732a3d-cf8c-808c-8001-ba4fb1c78083"><path opacity="1.000000" stroke="none" rx="0" ry="0" d="M175.023,175.849C174.795,176.43,174.561,176.706,174.328,176.982C174.319,176.227,174.31,175.471,174.301,174.716C174.54,174.992,174.779,175.268,175.023,175.849ZZ" style="fill: rgb(236, 160, 134);"/></g></g><g id="shape-2c732a3d-cf8c-808c-8001-ba4fb1c7d2e9"><g id="fills-2c732a3d-cf8c-808c-8001-ba4fb1c7d2e9"><path opacity="1.000000" stroke="none" rx="0" ry="0" d="M179.259,194.555C179.432,194.867,179.391,195.22,179.35,195.574C179.104,195.486,178.859,195.398,178.613,195.31C178.757,195.072,178.901,194.834,179.259,194.555ZZ" style="fill: rgb(255, 225, 212);"/></g></g><g id="shape-2c732a3d-cf8c-808c-8001-ba4fb1c7d2ea"><g id="fills-2c732a3d-cf8c-808c-8001-ba4fb1c7d2ea"><path opacity="1.000000" stroke="none" rx="0" ry="0" d="M175.742,182.467C175.874,182.05,176.158,181.784,176.443,181.517C176.533,181.629,176.712,181.825,176.698,181.84C176.445,182.112,176.168,182.363,175.742,182.467ZZ" style="fill: rgb(255, 225, 212);"/></g></g><g id="shape-2c732a3d-cf8c-808c-8001-ba4fb1c834cb"><g id="fills-2c732a3d-cf8c-808c-8001-ba4fb1c834cb"><path opacity="1.000000" stroke="none" rx="0" ry="0" d="M166.907,145.568C167.351,146.244,167.711,147.081,168.071,147.918C167.836,148.014,167.601,148.11,167.366,148.206C167.178,147.643,166.991,147.081,166.655,146.208C166.506,145.898,166.824,145.728,166.907,145.568ZZ" style="fill: rgb(236, 160, 134);"/></g></g><g id="shape-2c732a3d-cf8c-808c-8001-ba4fb1c879f7"><g id="fills-2c732a3d-cf8c-808c-8001-ba4fb1c879f7"><path opacity="1.000000" stroke="none" rx="0" ry="0" d="M168.675,152.206C168.415,151.819,168.364,151.243,168.314,150.666C168.504,151.116,168.694,151.566,168.675,152.206ZZ" style="fill: rgb(236, 160, 134);"/></g></g><g id="shape-2c732a3d-cf8c-808c-8001-ba4fb1c8b31a"><g id="fills-2c732a3d-cf8c-808c-8001-ba4fb1c8b31a"><path opacity="1.000000" stroke="none" rx="0" ry="0" d="M310.309,151.991C310.277,151.441,310.405,151.05,310.532,150.659C310.639,150.766,310.852,150.897,310.835,150.976C310.745,151.375,310.596,151.761,310.309,151.991ZZ" style="fill: rgb(254, 226, 214);"/></g></g><g id="shape-2c732a3d-cf8c-808c-8001-ba4fb1c8f99d"><g id="fills-2c732a3d-cf8c-808c-8001-ba4fb1c8f99d"><path opacity="1.000000" stroke="none" rx="0" ry="0" d="M169.322,154.659C169.684,155.024,169.837,155.577,169.989,156.13C169.772,156.182,169.555,156.234,169.338,156.286C169.262,155.807,169.187,155.328,169.322,154.659ZZ" style="fill: rgb(236, 160, 134);"/></g></g><g id="shape-2c732a3d-cf8c-808c-8001-ba4fb1c8f99e"><g id="fills-2c732a3d-cf8c-808c-8001-ba4fb1c8f99e"><path opacity="1.000000" stroke="none" rx="0" ry="0" d="M170.944,159.694C170.62,159.865,170.337,159.755,170.054,159.645C170.229,159.281,170.404,158.918,170.579,158.555C170.714,158.841,170.85,159.126,170.944,159.694ZZ" style="fill: rgb(236, 160, 134);"/></g></g><g id="shape-2c732a3d-cf8c-808c-8001-ba4fb1c9030d"><g id="fills-2c732a3d-cf8c-808c-8001-ba4fb1c9030d"><path opacity="1.000000" stroke="none" rx="0" ry="0" d="M171.936,163.15C171.856,163.724,171.728,164.015,171.6,164.306C171.465,163.792,171.317,163.28,171.212,162.76C171.2,162.699,171.461,162.497,171.536,162.525C171.676,162.575,171.773,162.746,171.936,163.15ZZ" style="fill: rgb(236, 160, 134);"/></g></g><g id="shape-2c732a3d-cf8c-808c-8001-ba4fb1c9030e"><g id="fills-2c732a3d-cf8c-808c-8001-ba4fb1c9030e"><path opacity="1.000000" stroke="none" rx="0" ry="0" d="M173.936,171.142C173.856,171.715,173.728,172.006,173.6,172.297C173.465,171.783,173.317,171.273,173.213,170.753C173.201,170.693,173.461,170.491,173.537,170.518C173.676,170.569,173.773,170.739,173.936,171.142ZZ" style="fill: rgb(236, 160, 134);"/></g></g><g id="shape-2c732a3d-cf8c-808c-8001-ba4fb1c94e09"><g id="fills-2c732a3d-cf8c-808c-8001-ba4fb1c94e09"><path opacity="1.000000" stroke="none" rx="0" ry="0" d="M172.713,166.678C172.693,167.324,172.488,167.755,172.283,168.187C172.365,167.613,172.446,167.038,172.713,166.678ZZ" style="fill: rgb(236, 160, 134);"/></g></g><g id="shape-2c732a3d-cf8c-808c-8001-ba4fb1c99265"><g id="fills-2c732a3d-cf8c-808c-8001-ba4fb1c99265"><path opacity="1.000000" stroke="none" rx="0" ry="0" d="M231.756,188.9C231.59,189.01,231.422,188.956,231.254,188.902C231.421,188.846,231.588,188.791,231.756,188.9ZZ" style="fill: rgb(255, 226, 214);"/></g></g><g id="shape-2c732a3d-cf8c-808c-8001-ba4fb1c99266"><g id="fills-2c732a3d-cf8c-808c-8001-ba4fb1c99266"><path opacity="1.000000" stroke="none" rx="0" ry="0" d="M228.644,163.653C228.629,163.903,228.495,164.039,228.362,164.175C228.416,163.963,228.47,163.751,228.644,163.653ZZ" style="fill: rgb(255, 226, 214);"/></g></g><g id="shape-2c732a3d-cf8c-808c-8001-ba4fb1c9e516"><g id="fills-2c732a3d-cf8c-808c-8001-ba4fb1c9e516"><path opacity="1.000000" stroke="none" rx="0" ry="0" d="M249.401,340.362C248.858,340.015,248.528,339.487,248.197,338.96C248.444,338.868,248.887,338.664,248.908,338.7C249.178,339.174,249.388,339.683,249.401,340.362ZZ" style="fill: rgb(255, 226, 213);"/></g></g><g id="shape-2c732a3d-cf8c-808c-8001-ba4fb1c9e517"><g id="fills-2c732a3d-cf8c-808c-8001-ba4fb1c9e517"><path opacity="1.000000" stroke="none" rx="0" ry="0" d="M247.365,330.784C247.912,331.034,248.28,331.475,248.599,331.949C248.613,331.97,248.185,332.289,247.963,332.469C247.7,331.974,247.438,331.478,247.365,330.784ZZ" style="fill: rgb(255, 226, 213);"/></g></g><g id="shape-2c732a3d-cf8c-808c-8001-ba4fb1ca1c79"><g id="fills-2c732a3d-cf8c-808c-8001-ba4fb1ca1c79"><path opacity="1.000000" stroke="none" rx="0" ry="0" d="M215.389,337.865C215.789,337.621,216.187,337.622,216.582,337.653C216.593,337.654,216.581,337.962,216.579,338.127C216.182,338.123,215.784,338.118,215.389,337.865ZZ" style="fill: rgb(252, 222, 210);"/></g></g><g id="shape-2c732a3d-cf8c-808c-8001-ba4fb1ca5062"><g id="fills-2c732a3d-cf8c-808c-8001-ba4fb1ca5062"><path opacity="1.000000" stroke="none" rx="0" ry="0" d="M217.702,341.07C217.418,341.411,217.166,341.531,216.914,341.651C216.842,341.409,216.769,341.167,216.697,340.924C217.042,340.899,217.388,340.875,217.702,341.07ZZ" style="fill: rgb(252, 222, 210);"/></g></g><g id="shape-2c732a3d-cf8c-808c-8001-ba4fb1ca9a5b"><g id="fills-2c732a3d-cf8c-808c-8001-ba4fb1ca9a5b"><path opacity="1.000000" stroke="none" rx="0" ry="0" d="M203.983,312.88C208.494,318.427,207.896,329.282,202.659,336.896C198.848,342.436,194.401,343.564,186.372,341.076C170.997,336.311,155.616,331.565,140.24,326.804C139.448,326.559,138.674,326.256,137.896,325.968C130.422,323.202,123.186,319.244,122.415,310.733C121.543,301.094,125.34,292.513,133.378,286.3C135.616,284.57,137.106,285.187,139.487,286.485C147.144,290.662,154.976,294.612,163.039,297.919C168.249,300.056,173.823,299.336,178.961,296.601C179.781,296.165,181.067,295.651,181.713,295.988C190.019,300.314,199.472,303.098,203.82,312.66C198.961,310.758,194.789,307.895,190.183,306.245C182.957,303.655,175.98,306.561,172.679,312.674C169.255,319.012,170.545,326.889,176.745,331.38C181.295,334.675,186.723,336.756,192.037,339.523C193.544,335.522,194.537,332.553,195.773,329.69C197.084,326.654,198.613,323.712,200.07,320.74C201.358,318.112,202.677,315.499,203.983,312.88ZZ" style="fill: rgb(252, 144, 129);"/></g></g><g id="shape-2c732a3d-cf8c-808c-8001-ba4fb1cad0b1"><g id="fills-2c732a3d-cf8c-808c-8001-ba4fb1cad0b1"><path opacity="1.000000" stroke="none" rx="0" ry="0" d="M158.719,240.666C160.758,240.862,162.957,240.578,164.006,241.544C169.145,246.273,174.291,251.064,178.842,256.343C185.13,263.639,187.58,272.295,185.94,281.942C184.089,292.832,176.325,298.537,165.519,296.616C155.27,294.794,146.343,290.002,138.595,283.195C132.176,277.555,130.712,267.305,135.253,259.319C140.453,250.176,147.916,243.545,158.719,240.666ZM148.579,267.285C145.543,275.388,149.633,286.651,157.116,291.127C159.62,292.625,161.052,292.21,162.794,289.74C166.514,284.464,170.56,279.401,174.722,274.46C176.692,272.121,179.236,270.265,181.489,268.217C168.302,254.176,157.74,253.855,148.579,267.285ZZ" style="fill: rgb(251, 144, 129);"/></g></g><g id="shape-2c732a3d-cf8c-808c-8001-ba4fb1cb2650"><g id="fills-2c732a3d-cf8c-808c-8001-ba4fb1cb2650"><path opacity="1.000000" stroke="none" rx="0" ry="0" d="M174.339,353.981C174.111,351.629,173.68,349.597,174.011,347.698C174.883,342.685,178.519,340.797,183.4,342.157C188.097,343.466,192.892,344.422,197.465,345.491C193.774,351.722,190.017,358.065,186.111,364.659C181.087,362.796,176.852,359.679,174.339,353.981ZZ" style="fill: rgb(251, 143, 128);"/></g></g><g id="shape-2c732a3d-cf8c-808c-8001-ba4fb1cb2651"><g id="fills-2c732a3d-cf8c-808c-8001-ba4fb1cb2651"><path opacity="1.000000" stroke="none" rx="0" ry="0" d="M157.159,77.83C154.89,75.117,156.677,73.432,158.619,73.313C164.773,72.937,170.966,73.026,177.134,73.234C178.052,73.265,179.801,75.186,179.624,75.731C179.238,76.921,178.021,78.36,176.857,78.691C170.376,80.534,163.858,80.8,157.159,77.83ZM158.55,76.27C164.872,79.028,171.13,78.33,177.369,75.917C171.141,73.452,164.887,72.819,158.55,76.27ZZ" style="fill: rgb(73, 22, 8);"/></g></g><g id="shape-2c732a3d-cf8c-808c-8001-ba4fb1cb62c7"><g id="fills-2c732a3d-cf8c-808c-8001-ba4fb1cb62c7"><path opacity="1.000000" stroke="none" rx="0" ry="0" d="M280.104,256.771C279.042,256.039,278.381,255.259,277.72,254.479C279.481,253.212,281.154,251.1,283.028,250.903C285.136,250.681,287.426,252.187,289.636,252.941C289.529,253.604,289.422,254.268,289.314,254.931C286.378,255.529,283.441,256.126,280.104,256.771ZZ" style="fill: rgb(244, 170, 59);"/></g></g><g id="shape-2c732a3d-cf8c-808c-8001-ba4fb1cb80e6"><g id="fills-2c732a3d-cf8c-808c-8001-ba4fb1cb80e6"><path opacity="1.000000" stroke="none" rx="0" ry="0" d="M300.264,249.221C305.376,244.787,308.007,244.976,311.671,250.421C307.561,251.387,303.755,252.281,299.237,253.343C299.627,251.571,299.85,250.559,300.264,249.221ZZ" style="fill: rgb(240, 166, 58);"/></g></g><g id="shape-2c732a3d-cf8c-808c-8001-ba4fb1cbe9d0"><g id="fills-2c732a3d-cf8c-808c-8001-ba4fb1cbe9d0"><path opacity="1.000000" stroke="none" rx="0" ry="0" d="M222.241,257.12C222.925,256.565,223.305,256.222,223.746,256.003C227.774,254.003,231.278,254.772,233.821,258.426C235.91,261.427,235.504,264.511,232.705,266.923C229.492,269.692,225.896,269.724,222.699,267.058C219.341,264.257,219.193,260.842,222.241,257.12ZZ" style="fill: rgb(250, 175, 61);"/></g></g><g id="shape-2c732a3d-cf8c-808c-8001-ba4fb1cc37ed"><g id="fills-2c732a3d-cf8c-808c-8001-ba4fb1cc37ed"><path opacity="1.000000" stroke="none" rx="0" ry="0" d="M203.995,312.898C202.677,315.499,201.358,318.112,200.07,320.74C198.613,323.712,197.084,326.654,195.773,329.69C194.537,332.553,193.544,335.522,192.037,339.523C186.723,336.756,181.295,334.675,176.745,331.38C170.545,326.889,169.255,319.012,172.679,312.674C175.98,306.561,182.957,303.655,190.183,306.245C194.789,307.895,198.961,310.758,203.684,313.01C204.042,312.942,204.006,312.916,203.995,312.898ZM184.601,307.383C175.075,307.293,168.974,319.041,175.792,327.64C179.663,332.523,185.134,334.661,190.578,335.986C194.212,328.425,197.571,321.434,201.545,313.166C196.168,311.231,190.822,309.308,184.601,307.383ZZ" style="fill: rgb(84, 33, 22);"/></g></g><g id="shape-2c732a3d-cf8c-808c-8001-ba4fb1cc769b"><g id="fills-2c732a3d-cf8c-808c-8001-ba4fb1cc769b"><path opacity="1.000000" stroke="none" rx="0" ry="0" d="M148.753,266.945C157.74,253.855,168.302,254.176,181.489,268.217C179.236,270.265,176.692,272.121,174.722,274.46C170.56,279.401,166.514,284.464,162.794,289.74C161.052,292.21,159.62,292.625,157.116,291.127C149.633,286.651,145.543,275.388,148.753,266.945ZM177.931,267.534C175.631,265.636,173.512,263.444,170.997,261.896C164.184,257.701,157.403,259.005,152.349,265.167C146.292,272.552,149.82,284.58,159.146,289.57C165.463,282.404,171.7,275.329,177.931,267.534ZZ" style="fill: rgb(86, 34, 23);"/></g></g><g id="shape-2c732a3d-cf8c-808c-8001-ba4fb1cc883f"><g id="fills-2c732a3d-cf8c-808c-8001-ba4fb1cc883f"><path opacity="1.000000" stroke="none" rx="0" ry="0" d="M158.556,75.893C164.887,72.819,171.141,73.452,177.369,75.917C171.13,78.33,164.872,79.028,158.556,75.893ZZ" style="fill: rgb(202, 80, 40);"/></g></g><g id="shape-2c732a3d-cf8c-808c-8001-ba4fb1cce823"><g id="fills-2c732a3d-cf8c-808c-8001-ba4fb1cce823"><path opacity="1.000000" stroke="none" rx="0" ry="0" d="M185.039,307.384C190.822,309.308,196.168,311.231,201.545,313.166C197.571,321.434,194.212,328.425,190.578,335.986C185.134,334.661,179.663,332.523,175.792,327.64C168.974,319.041,175.075,307.293,185.039,307.384ZZ" style="fill: rgb(251, 144, 129);"/></g></g><g id="shape-2c732a3d-cf8c-808c-8001-ba4fb1cd0ba1"><g id="fills-2c732a3d-cf8c-808c-8001-ba4fb1cd0ba1"><path opacity="1.000000" stroke="none" rx="0" ry="0" d="M177.934,267.894C171.7,275.329,165.463,282.404,159.146,289.57C149.82,284.58,146.292,272.552,152.349,265.167C157.403,259.005,164.184,257.701,170.997,261.896C173.512,263.444,175.631,265.636,177.934,267.894ZZ" style="fill: rgb(252, 144, 129);"/></g></g><g id="shape-2c732a3d-cf8c-808c-8001-ba5015b2f147"><g id="fills-2c732a3d-cf8c-808c-8001-ba5015b2f147"><path rx="0" ry="0" d="M141.144,142.911L165,240.911C165,240.911,75.3,148.973,141.144,142.911Z" style="fill: rgb(251, 144, 129); fill-opacity: 1;"/></g><g id="strokes-2c732a3d-cf8c-808c-8001-ba5015b2f147"><g class="stroke-shape"><path rx="0" ry="0" d="M141.144,142.911L165,240.911C165,240.911,75.3,148.973,141.144,142.911Z" style="fill: none; stroke-width: 2; stroke: rgb(82, 34, 23); stroke-opacity: 1;"/></g></g></g></g></svg>