<svg xmlns:xlink="http://www.w3.org/1999/xlink" width="512" xmlns="http://www.w3.org/2000/svg" height="494.298" id="screenshot-2c732a3d-cf8c-808c-8001-ba50c11bc71e" viewBox="0 0 512 494.298" style="-webkit-print-color-adjust: exact;" fill="none" version="1.1"><g id="shape-2c732a3d-cf8c-808c-8001-ba50c11bc71e" rx="0" ry="0"><g id="shape-f88fe35d-ef41-806b-8001-ba2e34575f13"><g id="fills-f88fe35d-ef41-806b-8001-ba2e34575f13"><path opacity="1.000000" stroke="none" rx="0" ry="0" d="M0,229.175C0,221.154,0,213.134,0.332,204.94C1.096,204.289,1.789,203.874,1.92,203.325C4.482,192.535,9.077,182.702,16.072,174.107C18.228,171.458,17.659,169.58,16.343,166.792C10.791,155.03,6.873,143.091,8.812,129.504C11.204,112.749,21.033,101.793,33.977,92.537C35.392,91.525,36.835,89.401,36.847,87.783C36.89,81.885,35.952,75.975,36.073,70.083C36.389,54.648,41.73,41.428,54.112,31.547C64.979,22.875,77.585,18.069,91.216,18.52C99.829,18.805,108.676,21.576,116.782,24.821C124.415,27.876,131.215,33.013,138.358,37.221C144.026,26.844,152.106,19.478,163.13,15.59C171.96,12.476,180.989,12.366,190.145,14.09C192.408,14.516,194.964,14.655,197.135,14.042C201.743,12.74,206.113,10.608,210.71,9.256C226.742,4.541,243.12,0.969,259.778,0.38C278.861,-0.295,297.979,-0.417,317.02,3.009C335.959,6.418,354.334,11.43,371.847,19.236C403.754,33.458,431.536,53.358,454.434,80C468.312,96.147,480.032,113.536,489.308,132.737C499.836,154.527,512,200.491,512,203.175C512,297.53,512,391.884,511.719,486.421C506.116,493.871,498.634,494.307,490.36,494.298C346.235,494.129,202.111,494.177,57.986,494.175C49.017,494.175,43.001,488.158,43,479.187C42.998,411.706,42.982,344.226,43.053,276.746C43.056,273.479,42.068,271.682,39.225,269.669C23.921,258.83,8.62,247.843,1.476,229.304C1.398,229.101,0.51,229.211,0,229.175ZM145.159,61.279C141.318,58.904,137.314,56.753,133.666,54.112C123.708,46.902,113.978,39.362,101.876,35.903C76.872,28.757,52.924,44.775,51.849,70.537C51.43,80.597,54.438,90.8,55.1,100.996C39.54,105.16,28.527,114.296,24.544,130.293C22.472,138.612,24.718,146.789,28.118,154.459C31.188,161.382,34.946,168.025,34.25,176.319C34.095,177.244,33.94,178.17,33.198,179.388C25.773,185.553,21.365,193.689,18.464,202.66C15.303,212.437,12.688,222.417,20.246,231.475C24.27,236.298,28.397,241.198,33.224,245.151C41.296,251.76,49.966,257.638,58.292,264.836C58.284,289.212,58.276,313.587,58.124,338.917C58.1,383.981,58.113,429.045,57.985,474.109C57.973,478.107,59.434,479.241,63.259,479.217C86.205,479.067,109.153,479.108,133.023,479.118C159.325,479.121,185.626,479.143,211.928,479.122C243.888,479.096,275.848,479.032,308.764,479.084C322.174,479.077,335.584,479.071,349.937,479.141C374.912,479.099,399.887,479.058,425.807,479.095C430.469,479.079,435.131,479.063,440.772,479.087C459.295,479.087,477.817,479.087,496.807,479.087C496.807,466.815,496.807,455.095,496.89,442.417C496.844,430.563,496.798,418.71,496.863,405.968C496.861,398.072,496.859,390.176,496.956,381.523C496.917,381.016,496.879,380.509,496.9,379.087C496.887,372.458,496.875,365.829,496.97,358.266C496.933,328.547,496.895,298.829,496.908,268.175C496.896,255.381,496.915,242.587,496.833,229.793C496.822,228.025,496.312,226.26,496.219,223.538C494.809,212.012,494.354,200.273,491.832,188.996C476.945,122.447,439.21,72.769,379.246,40.508C342.989,21.001,303.93,13.131,262.731,16.015C239.66,17.63,217.397,22.456,195.215,31.222C193.131,30.692,191.055,30.131,188.963,29.639C172.575,25.789,159.055,31.512,151.721,45.836C149.25,50.662,147.707,55.963,145.159,61.279ZL145.159,61.279Z" style="fill: rgb(255, 255, 255);"/></g></g><g id="shape-f88fe35d-ef41-806b-8001-ba2e3458e0b6"><g id="fills-f88fe35d-ef41-806b-8001-ba2e3458e0b6"><path opacity="1.000000" stroke="none" rx="0" ry="0" d="M496.752,406.857C496.798,418.71,496.844,430.563,496.578,443.064C490.807,451.113,489.508,459.655,489.803,469.005C484.843,465.732,480.557,462.344,475.797,459.863C458.474,450.835,442.262,459.581,439.794,479.048C435.131,479.063,430.469,479.079,425.358,478.599C424.918,454.808,424.964,431.512,424.895,408.216C424.886,405.079,424.551,401.894,423.945,398.814C420.239,379.999,402.781,367.518,382.579,369.116C364.709,370.53,349.258,386.428,348.995,404.696C348.638,429.481,348.962,454.274,348.994,479.064C335.584,479.071,322.174,479.077,308.3,478.599C307.421,465.637,306.84,453.1,300.706,441.855C294.229,429.98,285.075,421.545,270.393,422.191C261.186,422.595,254.356,427.853,248.06,433.526C247.388,406.664,246.81,380.251,246.045,353.843C245.449,333.258,244.619,312.68,244.083,291.816C253.009,285.396,261.746,279.258,270.59,273.569C270.729,275.515,270.777,277.012,270.788,278.509C270.843,286.061,271.78,287.394,279.004,290.243C279.583,290.472,280.098,290.86,280.684,291.197C272.503,300.677,272.503,300.677,278.512,307.239C276.982,310.953,273.955,314.721,274.713,317.431C275.527,320.343,279.896,322.26,282.978,324.832C282.123,326.638,281.039,328.683,280.17,330.816C278.226,335.589,280.468,339.06,285.681,339.243C289.622,339.381,293.571,339.27,297.999,339.27C297.999,336.935,297.999,335.148,297.999,333.36C297.999,310.226,298.069,287.092,297.92,263.959C297.899,260.726,298.787,258.911,301.687,257.341C310.123,252.776,316.41,246.076,320.516,237.149C322.281,236.328,323.762,235.598,325.099,234.662C341.603,223.106,358.174,211.64,374.502,199.839C377.799,197.456,379.908,197.698,383.154,199.715C411.147,217.109,439.237,234.347,467.349,251.549C477.112,257.523,487.017,263.263,496.857,269.11C496.895,298.829,496.933,328.547,496.657,358.535C492.136,351.532,485.928,347.534,476.993,346.995C476.993,352.683,476.993,358.122,476.993,363.56C476.993,368.972,476.993,374.385,476.993,380.002C483.986,380.002,490.413,380.002,496.841,380.002C496.879,380.509,496.917,381.016,496.452,381.838C489.716,382.153,483.482,382.153,477.224,382.153C477.224,390.605,477.224,398.516,477.224,406.857C483.886,406.857,490.319,406.857,496.752,406.857ZM302.046,382.021C295.138,382.021,288.229,382.021,281.129,382.021C281.129,390.483,281.129,398.482,281.129,407.024C288.511,407.024,295.593,407.024,303.557,407.089C304.146,407.068,304.734,407.047,306.217,406.955C313.101,406.955,319.984,406.955,326.737,406.955C326.737,398.182,326.737,390.166,326.737,382.18C319.231,382.18,312.121,382.18,304.33,382.176C303.875,382.181,303.421,382.185,302.046,382.021ZM303.608,380.133C304.121,380.124,304.635,380.116,306.066,380.135C313.001,380.135,319.935,380.135,326.796,380.135C328.576,359.473,320.393,347.372,304.714,346.706C304.141,346.868,303.568,347.03,302.183,347.034C286.382,348.491,277.522,362.564,281.59,380.1C288.631,380.1,295.735,380.1,303.608,380.133ZM391.634,288.084C397.06,288.084,402.486,288.084,407.819,288.084C410.037,267.929,401.217,254.744,386.186,255.302C386.186,266.031,386.186,276.768,386.186,287.825C387.788,287.918,389.229,288.001,391.634,288.084ZM372.131,258.651C361.656,266.001,360.91,276.507,362.323,287.743C369.732,287.743,376.791,287.743,384.121,287.743C384.121,282.1,384.121,276.796,384.121,271.493C384.121,266.05,384.121,260.608,384.121,253.983C379.749,255.623,376.255,256.934,372.131,258.651ZM456.604,357.419C451.9,364.413,452.834,372.154,453.139,379.829C460.695,379.829,467.76,379.829,475.124,379.829C475.124,369.567,475.131,359.615,475.11,349.662C475.108,348.86,474.909,348.059,474.774,347.051C467.031,347.281,461.436,350.965,456.604,357.419ZM460.586,406.943C465.35,406.943,470.113,406.943,474.849,406.943C474.849,398.267,474.849,390.338,474.849,382.263C467.498,382.263,460.43,382.263,453.306,382.263C453.306,390.569,453.306,398.604,453.306,406.943C455.658,406.943,457.637,406.943,460.586,406.943ZM361.906,306.609C361.906,309.206,361.906,311.803,361.906,314.485C369.629,314.485,376.702,314.485,383.709,314.485C383.709,306.136,383.709,298.099,383.709,290.297C376.232,290.297,369.177,290.297,361.906,290.297C361.906,295.674,361.906,300.65,361.906,306.609ZM401.381,314.791C403.505,314.791,405.629,314.791,407.847,314.791C407.847,306.202,407.847,298.169,407.847,290.251C400.391,290.251,393.332,290.251,386.26,290.251C386.26,298.52,386.26,306.429,386.26,314.791C391.152,314.791,395.781,314.791,401.381,314.791ZZ" style="fill: rgb(140, 218, 248);"/></g></g><g id="shape-f88fe35d-ef41-806b-8001-ba2e345a102d"><g id="fills-f88fe35d-ef41-806b-8001-ba2e345a102d"><path opacity="1.000000" stroke="none" rx="0" ry="0" d="M58.384,263.823C49.966,257.638,41.296,251.76,33.224,245.151C28.397,241.198,24.27,236.298,20.246,231.475C12.688,222.417,15.303,212.437,18.464,202.66C21.365,193.689,25.773,185.553,33.886,179.325C42.499,174.79,50.907,175.677,59.318,177.151C75.876,180.053,90.112,187.484,101.853,199.521C105.015,202.762,108.266,206.52,106.698,211.409C104.231,219.102,101.635,226.853,98.047,234.059C94.513,241.157,88.16,244.596,79.87,243.619C65.672,241.945,51.467,240.338,37.26,238.743C35.899,238.59,34.506,238.722,33.128,238.722C33.073,239.346,33.019,239.97,32.965,240.594C39.596,241.722,46.227,242.85,53.75,244.129C50.037,246.416,47.279,248.115,43.998,250.136C45.386,250.842,45.673,251.109,45.956,251.105C46.435,251.098,47.014,251.059,47.372,250.792C55.595,244.673,64.773,244.32,74.391,246.082C76.655,246.497,79.052,246.128,81.369,246.332C88.52,246.96,94.565,244.281,98.081,238.411C102.208,231.521,105.263,223.949,108.371,216.501C111.526,208.939,108.819,202.61,103.346,197.075C93.781,187.402,82.439,180.605,69.45,176.833C58.078,173.531,46.514,170.867,34.841,175.918C34.946,168.025,31.188,161.382,28.118,154.459C24.718,146.789,22.472,138.612,24.544,130.293C28.527,114.296,39.54,105.16,55.854,101.154C74.075,104.475,90.541,110.852,106.456,118.315C119.458,124.412,132.283,131.313,144.03,139.515C152.496,145.426,159.243,153.892,166.365,161.581C168.607,164.002,170.571,167.481,170.952,170.679C172.383,182.703,165.746,190.89,156.497,197.191C148.254,202.807,139.953,202.715,131.402,197.009C117.085,187.456,101.722,179.93,84.98,175.573C71.636,172.1,58.233,168.855,44.839,165.58C43.405,165.23,41.857,165.351,40.361,165.254C40.268,165.748,40.175,166.241,40.082,166.735C41.493,167.222,42.872,167.857,44.32,168.175C75.739,175.062,106.902,182.549,133.917,201.408C139.329,205.187,145.578,204.882,151.645,202.552C162.057,198.552,169.164,191.18,172.838,180.74C175.676,172.678,174.074,165.361,167.938,159.155C163.613,154.78,159.41,150.284,155.466,145.598C155.968,145.169,156.157,144.984,156.676,144.912C163.815,148.816,170.514,152.823,177.464,156.335C183.967,159.621,191.139,160.279,196.598,155.029C202.725,149.137,208.579,142.563,212.914,135.307C218.052,126.707,216.266,120.128,209.565,112.612C209.921,112.254,210.057,112.105,210.528,112.045C217.862,116.598,224.861,121.063,232.313,125.816C214.625,139.74,199.96,155.949,188.363,174.84C174.917,196.742,163.193,228.691,165.978,235.817C166.358,235.474,166.864,235.229,167.011,234.846C167.424,233.767,167.743,232.643,168.006,231.515C177.049,192.681,196.65,160.198,226.666,133.981C234.428,127.202,234.474,127.152,243.146,132.673C245.59,134.229,248.858,135.779,249.84,138.129C255.204,150.966,259.973,164.053,264.575,177.094C249.037,181.88,235.537,197.992,235.049,217.193C234.628,233.793,242.487,246.306,255.019,256.685C251.98,264.431,248.993,271.822,245.999,279.191C245.994,279.169,246.039,279.17,245.726,279.216C245.259,279.648,245.104,280.033,244.753,280.681C241.747,286.026,238.938,291.109,235.974,296.494C230.677,301.367,225.514,305.914,220.418,310.537C219.736,311.156,219.217,312.098,218.93,312.989C216.445,320.704,214.031,328.441,211.216,336.156C205.198,334.819,199.558,333.509,193.923,332.176C158.482,323.787,123.041,315.394,87.68,306.58C88.608,300.18,89.457,294.203,90.678,288.383C101.165,291.503,111.279,294.466,121.393,297.429C121.574,296.927,121.756,296.426,121.937,295.924C111.678,291.032,101.419,286.14,90.946,280.967C79.948,275.064,69.166,269.444,58.384,263.823ZM136.664,187.992C140.366,191.687,144.068,195.382,148.087,199.394C155.218,191.337,161.75,184.065,168.097,176.635C168.8,175.813,169.071,173.592,168.487,172.862C162.706,165.618,156.126,159.279,146.54,157.553C135.058,155.484,125.886,166.398,130.113,177.253C131.53,180.891,134.136,184.067,136.664,187.992ZZ" style="fill: rgb(254, 156, 138);"/></g></g><g id="shape-f88fe35d-ef41-806b-8001-ba2e345ab882"><g id="fills-f88fe35d-ef41-806b-8001-ba2e345ab882"><path opacity="1.000000" stroke="none" rx="0" ry="0" d="M196.019,31.302C217.397,22.456,239.66,17.63,262.731,16.015C303.93,13.131,342.989,21.001,379.246,40.508C439.21,72.769,476.945,122.447,491.832,188.996C494.354,200.273,494.809,212.012,495.768,223.925C487.626,219.35,479.976,214.323,472.219,209.467C470.14,208.165,467.828,207.015,465.466,206.419C438.226,199.556,410.937,192.882,383.716,185.943C380.598,185.148,378.463,185.641,375.952,187.438C358.76,199.742,341.468,211.905,324.167,223.655C326.389,197.113,308.479,179.274,290.07,174.753C299.508,152.059,308.872,129.699,318.44,107.427C319.19,105.681,321.179,104.256,322.9,103.171C335.545,95.195,348.571,87.782,360.859,79.295C368.872,73.761,375.914,66.8,383.254,60.322C386.219,57.704,386.53,54.687,383.141,51.535C380.05,47.263,376.345,49.68,373.68,50.977C358.965,58.138,344.479,65.769,329.905,73.221C328.31,74.036,326.655,74.732,325.077,75.037C324.805,64.173,320.118,59.201,309.741,59.31C305.557,59.354,301.056,60.187,297.277,61.921C287.267,66.514,279.472,73.904,273.356,83.267C273.058,83.504,272.866,83.602,272.311,83.504C248.684,63.019,224.942,43.379,196.019,31.302ZM466.528,191.788C464.911,188.891,463.836,185.461,461.591,183.185C446.54,167.921,428.82,156.121,410.338,145.571C400.448,139.925,389.832,135.513,379.367,130.952C377.68,130.217,375.06,131.622,372.321,132.446C368.016,136.881,371.222,140.387,374.344,142.916C387.352,153.454,400.03,164.585,414.01,173.685C427.28,182.322,441.976,188.788,456.142,196.017C460.495,198.237,464.212,197.368,466.528,191.788ZZ" style="fill: rgb(86, 103, 253);"/></g></g><g id="shape-f88fe35d-ef41-806b-8001-ba2e345ae5b4"><g id="fills-f88fe35d-ef41-806b-8001-ba2e345ae5b4"><path opacity="1.000000" stroke="none" rx="0" ry="0" d="M87.601,307.003C123.041,315.394,158.482,323.787,193.923,332.176C199.558,333.509,205.198,334.819,211.604,336.299C213.973,336.887,215.556,337.58,217.18,337.694C221.892,338.026,222.198,340.311,221.074,344.343C218.401,353.936,216.366,363.705,213.701,373.3C212.617,377.205,213.104,380.098,215.624,383.367C229.713,401.639,234.26,421.95,227.622,444.21C225.245,441.894,223.298,439.589,221.029,437.665C213.856,431.587,205,430.519,197.475,435.034C189.65,439.73,185.133,446.996,183.126,455.726C182.16,459.93,182,464.318,181.486,468.537C176.389,465.296,171.77,461.627,166.574,459.187C149.579,451.206,134.43,460.307,132.1,479.085C109.153,479.108,86.205,479.067,63.259,479.217C59.434,479.241,57.973,478.107,57.985,474.109C58.113,429.045,58.1,383.981,58.589,338.478C64.988,338.321,68.545,336.147,70.31,329.872C72.662,321.508,76.242,313.49,79.256,305.427C82.425,306.026,85.013,306.514,87.601,307.003ZZ" style="fill: rgb(246, 225, 196);"/></g></g><g id="shape-f88fe35d-ef41-806b-8001-ba2e345ae5b5"><g id="fills-f88fe35d-ef41-806b-8001-ba2e345ae5b5"><path opacity="1.000000" stroke="none" rx="0" ry="0" d="M349.465,479.102C348.962,454.274,348.638,429.481,348.995,404.696C349.258,386.428,364.709,370.53,382.579,369.116C402.781,367.518,420.239,379.999,423.945,398.814C424.551,401.894,424.886,405.079,424.895,408.216C424.964,431.512,424.918,454.808,424.886,478.56C399.887,479.058,374.912,479.099,349.465,479.102ZM362.428,433.223C362.597,430.841,363.428,428.21,362.663,426.181C362.267,425.131,358.521,424.207,357.227,424.923C355.646,425.798,353.987,428.608,354.236,430.307C354.86,434.558,358.092,435.125,362.428,433.223ZZ" style="fill: rgb(11, 34, 60);"/></g></g><g id="shape-f88fe35d-ef41-806b-8001-ba2e345b15ab"><g id="fills-f88fe35d-ef41-806b-8001-ba2e345b15ab"><path opacity="1.000000" stroke="none" rx="0" ry="0" d="M195.617,31.262C224.942,43.379,248.684,63.019,272.061,83.761C272.795,85.625,273.214,87.215,274.102,88.474C278.033,94.049,281.982,99.618,286.146,105.018C290.809,111.066,291.219,117.526,287,123.512C283.623,128.304,279.341,132.66,274.776,136.365C268.384,141.553,261.482,141.226,254.48,136.654C241.683,128.298,228.692,120.238,215.766,112.081C192.707,97.529,169.166,83.671,148.596,65.541C147.317,64.414,146.677,62.561,145.741,61.046C147.707,55.963,149.25,50.662,151.721,45.836C159.055,31.512,172.575,25.789,188.963,29.639C191.055,30.131,193.131,30.692,195.617,31.262ZM263.318,137.162C270.989,129.846,278.659,122.529,286.701,114.859C278.464,105.623,270.608,96.866,259.009,92.82C254.04,91.086,249.121,91.381,245.041,95.247C240.963,99.112,240.379,103.863,241.98,109.015C242.52,110.751,242.915,112.702,243.99,114.074C250.089,121.863,256.374,129.506,263.318,137.162ZZ" style="fill: rgb(253, 156, 138);"/></g></g><g id="shape-f88fe35d-ef41-806b-8001-ba2e345b731e"><g id="fills-f88fe35d-ef41-806b-8001-ba2e345b731e"><path opacity="1.000000" stroke="none" rx="0" ry="0" d="M132.562,479.101C134.43,460.307,149.579,451.206,166.574,459.187C171.77,461.627,176.389,465.296,181.486,468.537C182,464.318,182.16,459.93,183.126,455.726C185.133,446.996,189.65,439.73,197.475,435.034C205,430.519,213.856,431.587,221.029,437.665C223.298,439.589,225.245,441.894,227.711,444.535C230.612,449.954,233.141,454.863,235.216,458.892C239.376,450.831,243.724,442.405,248.073,433.978C254.356,427.853,261.186,422.595,270.393,422.191C285.075,421.545,294.229,429.98,300.706,441.855C306.84,453.1,307.421,465.637,307.821,478.549C275.848,479.032,243.888,479.096,211.928,479.122C185.626,479.143,159.325,479.121,132.562,479.101ZZ" style="fill: rgb(254, 107, 109);"/></g></g><g id="shape-f88fe35d-ef41-806b-8001-ba2e345ba266"><g id="fills-f88fe35d-ef41-806b-8001-ba2e345ba266"><path opacity="1.000000" stroke="none" rx="0" ry="0" d="M324.209,224.113C341.468,211.905,358.76,199.742,375.952,187.438C378.463,185.641,380.598,185.148,383.716,185.943C410.937,192.882,438.226,199.556,465.466,206.419C467.828,207.015,470.14,208.165,472.219,209.467C479.976,214.323,487.626,219.35,495.674,224.403C496.312,226.26,496.822,228.025,496.833,229.793C496.915,242.587,496.896,255.381,496.883,268.643C487.017,263.263,477.112,257.523,467.349,251.549C439.237,234.347,411.147,217.109,383.154,199.715C379.908,197.698,377.799,197.456,374.502,199.839C358.174,211.64,341.603,223.106,325.099,234.662C323.762,235.598,322.281,236.328,320.576,236.795C321.593,232.328,322.901,228.221,324.209,224.113ZZ" style="fill: rgb(12, 35, 61);"/></g></g><g id="shape-f88fe35d-ef41-806b-8001-ba2e345c7a36"><g id="fills-f88fe35d-ef41-806b-8001-ba2e345c7a36"><path opacity="1.000000" stroke="none" rx="0" ry="0" d="M145.45,61.162C146.677,62.561,147.317,64.414,148.596,65.541C169.166,83.671,192.707,97.529,215.766,112.081C228.692,120.238,241.683,128.298,254.48,136.654C261.482,141.226,268.384,141.553,274.776,136.365C279.341,132.66,283.623,128.304,287,123.512C291.219,117.526,290.809,111.066,286.146,105.018C281.982,99.618,278.033,94.049,274.102,88.474C273.214,87.215,272.795,85.625,272.41,83.929C272.866,83.602,273.058,83.504,273.556,83.572C278.381,89.943,282.889,96.116,287.387,102.297C293.923,111.281,294.049,118.124,288.018,127.502C287.072,128.973,286.052,130.702,285.955,132.364C285.14,146.283,284.532,160.215,283.661,174.491C282.698,180.071,281.936,185.303,281.169,190.568C281.778,190.88,282.214,191.076,282.624,191.316C287.138,193.964,288.688,198.149,286.638,202.134C284.844,205.621,280.449,207.23,276.816,205.729C272.631,203.999,271.211,199.822,272.87,194.905C273.274,193.707,273.31,192,272.75,190.925C270.302,186.221,267.573,181.664,264.946,177.054C259.973,164.053,255.204,150.966,249.84,138.129C248.858,135.779,245.59,134.229,243.146,132.673C234.474,127.152,234.428,127.202,226.666,133.981C196.65,160.198,177.049,192.681,168.006,231.515C167.743,232.643,167.424,233.767,167.011,234.846C166.864,235.229,166.358,235.474,165.978,235.817C163.193,228.691,174.917,196.742,188.363,174.84C199.96,155.949,214.625,139.74,232.313,125.816C224.861,121.063,217.862,116.598,210.325,111.786C208.999,111.439,208.209,111.439,206.82,111.439C208.036,112.104,208.691,112.462,209.346,112.82C216.266,120.128,218.052,126.707,212.914,135.307C208.579,142.563,202.725,149.137,196.598,155.029C191.139,160.279,183.967,159.621,177.464,156.335C170.514,152.823,163.815,148.816,156.413,144.677C155.264,144.262,154.708,144.196,154.152,144.13C154.486,144.701,154.819,145.271,155.153,145.842C159.41,150.284,163.613,154.78,167.938,159.155C174.074,165.361,175.676,172.678,172.838,180.74C169.164,191.18,162.057,198.552,151.645,202.552C145.578,204.882,139.329,205.187,133.917,201.408C106.902,182.549,75.739,175.062,44.32,168.175C42.872,167.857,41.493,167.222,40.082,166.735C40.175,166.241,40.268,165.748,40.361,165.254C41.857,165.351,43.405,165.23,44.839,165.58C58.233,168.855,71.636,172.1,84.98,175.573C101.722,179.93,117.085,187.456,131.402,197.009C139.953,202.715,148.254,202.807,156.497,197.191C165.746,190.89,172.383,182.703,170.952,170.679C170.571,167.481,168.607,164.002,166.365,161.581C159.243,153.892,152.496,145.426,144.03,139.515C132.283,131.313,119.458,124.412,106.456,118.315C90.541,110.852,74.075,104.475,56.247,101.125C54.438,90.8,51.43,80.597,51.849,70.537C52.924,44.775,76.872,28.757,101.876,35.903C113.978,39.362,123.708,46.902,133.666,54.112C137.314,56.753,141.318,58.904,145.45,61.162ZM267.903,176.032C270.742,181.264,273.58,186.496,276.418,191.727C277.086,191.542,277.753,191.357,278.42,191.171C279.214,185.495,280.007,179.818,280.984,173.293C282.618,160.388,283.815,147.468,282.974,133.619C273.979,141.265,265.29,146.391,253.152,139.071C257.075,152.685,261.601,164.323,267.903,176.032ZM71.603,102.094C93.925,109.414,115.557,118.29,135.942,130.094C149.464,137.924,163.108,145.55,176.786,153.105C182.409,156.211,188.429,157.711,194.222,153.605C202.11,148.013,208.362,140.919,211.736,131.726C214.375,124.535,213.077,119.349,207.213,114.79C179.1,92.926,151.006,71.034,122.581,49.581C116.578,45.05,109.534,41.402,102.419,38.934C82.402,31.991,59.913,43.467,55.36,62.294C53.032,71.919,54.464,81.452,56.065,91.022C57.006,96.648,58.875,100.684,65.538,100.502C67.283,100.454,69.056,101.409,71.603,102.094ZZ" style="fill: rgb(32, 45, 67);"/></g></g><g id="shape-f88fe35d-ef41-806b-8001-ba2e345c9760"><g id="fills-f88fe35d-ef41-806b-8001-ba2e345c9760"><path opacity="1.000000" stroke="none" rx="0" ry="0" d="M87.68,306.58C85.013,306.514,82.425,306.026,79.256,305.427C76.242,313.49,72.662,321.508,70.31,329.872C68.545,336.147,64.988,338.321,58.661,338.001C58.276,313.587,58.284,289.212,58.338,264.33C69.166,269.444,79.948,275.064,90.904,281.342C90.82,284.075,90.563,286.15,90.306,288.226C89.457,294.203,88.608,300.18,87.68,306.58ZZ" style="fill: rgb(86, 103, 253);"/></g></g><g id="shape-f88fe35d-ef41-806b-8001-ba2e345c9761"><g id="fills-f88fe35d-ef41-806b-8001-ba2e345c9761"><path opacity="1.000000" stroke="none" rx="0" ry="0" d="M440.283,479.067C442.262,459.581,458.474,450.835,475.797,459.863C480.557,462.344,484.843,465.732,489.803,469.005C489.508,459.655,490.807,451.113,496.536,443.544C496.807,455.095,496.807,466.815,496.807,479.087C477.817,479.087,459.295,479.087,440.283,479.067ZZ" style="fill: rgb(253, 110, 112);"/></g></g><g id="shape-f88fe35d-ef41-806b-8001-ba2e345d07a3"><g id="fills-f88fe35d-ef41-806b-8001-ba2e345d07a3"><path opacity="1.000000" stroke="none" rx="0" ry="0" d="M34.545,176.118C46.514,170.867,58.078,173.531,69.45,176.833C82.439,180.605,93.781,187.402,103.346,197.075C108.819,202.61,111.526,208.939,108.371,216.501C105.263,223.949,102.208,231.521,98.081,238.411C94.565,244.281,88.52,246.96,81.369,246.332C79.052,246.128,76.655,246.497,74.391,246.082C64.773,244.32,55.595,244.673,47.372,250.792C47.014,251.059,46.435,251.098,45.956,251.105C45.673,251.109,45.386,250.842,43.998,250.136C47.279,248.115,50.037,246.416,53.75,244.129C46.227,242.85,39.596,241.722,32.965,240.594C33.019,239.97,33.073,239.346,33.128,238.722C34.506,238.722,35.899,238.59,37.26,238.743C51.467,240.338,65.672,241.945,79.87,243.619C88.16,244.596,94.513,241.157,98.047,234.059C101.635,226.853,104.231,219.102,106.698,211.409C108.266,206.52,105.015,202.762,101.853,199.521C90.112,187.484,75.876,180.053,59.318,177.151C50.907,175.677,42.499,174.79,34.18,179.179C33.94,178.17,34.095,177.244,34.545,176.118ZZ" style="fill: rgb(35, 45, 67);"/></g></g><g id="shape-f88fe35d-ef41-806b-8001-ba2e345d07a4"><g id="fills-f88fe35d-ef41-806b-8001-ba2e345d07a4"><path opacity="1.000000" stroke="none" rx="0" ry="0" d="M496.87,379.544C490.413,380.002,483.986,380.002,476.993,380.002C476.993,374.385,476.993,368.972,476.993,363.56C476.993,358.122,476.993,352.683,476.993,346.995C485.928,347.534,492.136,351.532,496.603,359.002C496.875,365.829,496.887,372.458,496.87,379.544ZZ" style="fill: rgb(12, 36, 62);"/></g></g><g id="shape-f88fe35d-ef41-806b-8001-ba2e345d4447"><g id="fills-f88fe35d-ef41-806b-8001-ba2e345d4447"><path opacity="1.000000" stroke="none" rx="0" ry="0" d="M496.808,406.413C490.319,406.857,483.886,406.857,477.224,406.857C477.224,398.516,477.224,390.605,477.224,382.153C483.482,382.153,489.716,382.153,496.403,382.216C496.859,390.176,496.861,398.072,496.808,406.413ZZ" style="fill: rgb(13, 37, 63);"/></g></g><g id="shape-f88fe35d-ef41-806b-8001-ba2e345d8711"><g id="fills-f88fe35d-ef41-806b-8001-ba2e345d8711"><path opacity="1.000000" stroke="none" rx="0" ry="0" d="M264.575,177.094C267.573,181.664,270.302,186.221,272.75,190.925C273.31,192,273.274,193.707,272.87,194.905C271.211,199.822,272.631,203.999,276.816,205.729C280.449,207.23,284.844,205.621,286.638,202.134C288.688,198.149,287.138,193.964,282.624,191.316C282.214,191.076,281.778,190.88,281.169,190.568C281.936,185.303,282.698,180.071,284.061,174.505C286.458,174.483,288.253,174.796,290.048,175.109C308.479,179.274,326.389,197.113,324.167,223.655C322.901,228.221,321.593,232.328,320.224,236.79C316.41,246.076,310.123,252.776,301.687,257.341C298.787,258.911,297.899,260.726,297.92,263.959C298.069,287.092,297.999,310.226,297.999,333.36C297.999,335.148,297.999,336.935,297.999,339.27C293.571,339.27,289.622,339.381,285.681,339.243C280.468,339.06,278.226,335.589,280.17,330.816C281.039,328.683,282.123,326.638,282.978,324.832C279.896,322.26,275.527,320.343,274.713,317.431C273.955,314.721,276.982,310.953,278.512,307.239C272.503,300.677,272.503,300.677,280.684,291.197C280.098,290.86,279.583,290.472,279.004,290.243C271.78,287.394,270.843,286.061,270.788,278.509C270.777,277.012,270.729,275.515,270.687,273.134C270.553,269.056,270.43,265.861,269.96,262.445C264.765,260.259,259.918,258.294,255.071,256.329C242.487,246.306,234.628,233.793,235.049,217.193C235.537,197.992,249.037,181.88,264.575,177.094ZZ" style="fill: rgb(254, 193, 82);"/></g></g><g id="shape-f88fe35d-ef41-806b-8001-ba2e345de7e2"><g id="fills-f88fe35d-ef41-806b-8001-ba2e345de7e2"><path opacity="1.000000" stroke="none" rx="0" ry="0" d="M248.06,433.526C243.724,442.405,239.376,450.831,235.216,458.892C233.141,454.863,230.612,449.954,227.994,444.72C234.26,421.95,229.713,401.639,215.624,383.367C213.104,380.098,212.617,377.205,213.701,373.3C216.366,363.705,218.401,353.936,221.074,344.343C222.198,340.311,221.892,338.026,217.18,337.694C215.556,337.58,213.973,336.887,211.984,336.315C214.031,328.441,216.445,320.704,218.93,312.989C219.217,312.098,219.736,311.156,220.418,310.537C225.514,305.914,230.677,301.367,236.323,296.496C239.183,294.831,241.538,293.465,243.893,292.098C244.619,312.68,245.449,333.258,246.045,353.843C246.81,380.251,247.388,406.664,248.06,433.526ZZ" style="fill: rgb(86, 103, 253);"/></g></g><g id="shape-f88fe35d-ef41-806b-8001-ba2e345de7e3"><g id="fills-f88fe35d-ef41-806b-8001-ba2e345de7e3"><path opacity="1.000000" stroke="none" rx="0" ry="0" d="M391.152,288.084C389.229,288.001,387.788,287.918,386.186,287.825C386.186,276.768,386.186,266.031,386.186,255.302C401.217,254.744,410.037,267.929,407.819,288.084C402.486,288.084,397.06,288.084,391.152,288.084ZZ" style="fill: rgb(11, 35, 61);"/></g></g><g id="shape-f88fe35d-ef41-806b-8001-ba2e345e025e"><g id="fills-f88fe35d-ef41-806b-8001-ba2e345e025e"><path opacity="1.000000" stroke="none" rx="0" ry="0" d="M372.446,258.448C376.255,256.934,379.749,255.623,384.121,253.983C384.121,260.608,384.121,266.05,384.121,271.493C384.121,276.796,384.121,282.1,384.121,287.743C376.791,287.743,369.732,287.743,362.323,287.743C360.91,276.507,361.656,266.001,372.446,258.448ZZ" style="fill: rgb(11, 35, 61);"/></g></g><g id="shape-f88fe35d-ef41-806b-8001-ba2e345e025f"><g id="fills-f88fe35d-ef41-806b-8001-ba2e345e025f"><path opacity="1.000000" stroke="none" rx="0" ry="0" d="M456.805,357.111C461.436,350.965,467.031,347.281,474.774,347.051C474.909,348.059,475.108,348.86,475.11,349.662C475.131,359.615,475.124,369.567,475.124,379.829C467.76,379.829,460.695,379.829,453.139,379.829C452.834,372.154,451.9,364.413,456.805,357.111ZZ" style="fill: rgb(11, 35, 61);"/></g></g><g id="shape-f88fe35d-ef41-806b-8001-ba2e345e6500"><g id="fills-f88fe35d-ef41-806b-8001-ba2e345e6500"><path opacity="1.000000" stroke="none" rx="0" ry="0" d="M304.997,347.167C320.393,347.372,328.576,359.473,326.796,380.135C319.935,380.135,313.001,380.135,305.546,379.66C305.016,368.513,305.007,357.84,304.997,347.167ZZ" style="fill: rgb(11, 34, 60);"/></g></g><g id="shape-f88fe35d-ef41-806b-8001-ba2e345e6501"><g id="fills-f88fe35d-ef41-806b-8001-ba2e345e6501"><path opacity="1.000000" stroke="none" rx="0" ry="0" d="M302.838,380.1C295.735,380.1,288.631,380.1,281.59,380.1C277.522,362.564,286.382,348.491,302.584,347.58C302.936,358.784,302.887,369.442,302.838,380.1ZZ" style="fill: rgb(11, 34, 60);"/></g></g><g id="shape-f88fe35d-ef41-806b-8001-ba2e345e9c87"><g id="fills-f88fe35d-ef41-806b-8001-ba2e345e9c87"><path opacity="1.000000" stroke="none" rx="0" ry="0" d="M460.101,406.943C457.637,406.943,455.658,406.943,453.306,406.943C453.306,398.604,453.306,390.569,453.306,382.263C460.43,382.263,467.498,382.263,474.849,382.263C474.849,390.338,474.849,398.267,474.849,406.943C470.113,406.943,465.35,406.943,460.101,406.943ZZ" style="fill: rgb(12, 35, 62);"/></g></g><g id="shape-f88fe35d-ef41-806b-8001-ba2e345edb21"><g id="fills-f88fe35d-ef41-806b-8001-ba2e345edb21"><path opacity="1.000000" stroke="none" rx="0" ry="0" d="M361.906,306.117C361.906,300.65,361.906,295.674,361.906,290.297C369.177,290.297,376.232,290.297,383.709,290.297C383.709,298.099,383.709,306.136,383.709,314.485C376.702,314.485,369.629,314.485,361.906,314.485C361.906,311.803,361.906,309.206,361.906,306.117ZZ" style="fill: rgb(12, 36, 63);"/></g></g><g id="shape-f88fe35d-ef41-806b-8001-ba2e345edb22"><g id="fills-f88fe35d-ef41-806b-8001-ba2e345edb22"><path opacity="1.000000" stroke="none" rx="0" ry="0" d="M400.895,314.791C395.781,314.791,391.152,314.791,386.26,314.791C386.26,306.429,386.26,298.52,386.26,290.251C393.332,290.251,400.391,290.251,407.847,290.251C407.847,298.169,407.847,306.202,407.847,314.791C405.629,314.791,403.505,314.791,400.895,314.791ZZ" style="fill: rgb(12, 36, 63);"/></g></g><g id="shape-f88fe35d-ef41-806b-8001-ba2e345edb23"><g id="fills-f88fe35d-ef41-806b-8001-ba2e345edb23"><path opacity="1.000000" stroke="none" rx="0" ry="0" d="M305.012,382.18C312.121,382.18,319.231,382.18,326.737,382.18C326.737,390.166,326.737,398.182,326.737,406.955C319.984,406.955,313.101,406.955,305.665,406.542C305.08,398.146,305.046,390.163,305.012,382.18ZZ" style="fill: rgb(12, 35, 62);"/></g></g><g id="shape-f88fe35d-ef41-806b-8001-ba2e345f02f0"><g id="fills-f88fe35d-ef41-806b-8001-ba2e345f02f0"><path opacity="1.000000" stroke="none" rx="0" ry="0" d="M302.676,407.024C295.593,407.024,288.511,407.024,281.129,407.024C281.129,398.482,281.129,390.483,281.129,382.021C288.229,382.021,295.138,382.021,302.517,382.573C302.884,391.091,302.78,399.058,302.676,407.024ZZ" style="fill: rgb(12, 35, 62);"/></g></g><g id="shape-f88fe35d-ef41-806b-8001-ba2e345f02f1"><g id="fills-f88fe35d-ef41-806b-8001-ba2e345f02f1"><path opacity="1.000000" stroke="none" rx="0" ry="0" d="M244.083,291.816C241.538,293.465,239.183,294.831,236.478,296.195C238.938,291.109,241.747,286.026,245.035,280.558C245.689,279.838,245.864,279.504,246.039,279.17C246.039,279.17,245.994,279.169,246.353,279.204C254.578,273.715,262.442,268.191,270.306,262.667C270.43,265.861,270.553,269.056,270.579,272.685C261.746,279.258,253.009,285.396,244.083,291.816ZZ" style="fill: rgb(17, 39, 65);"/></g></g><g id="shape-f88fe35d-ef41-806b-8001-ba2e345f4e23"><g id="fills-f88fe35d-ef41-806b-8001-ba2e345f4e23"><path opacity="1.000000" stroke="none" rx="0" ry="0" d="M303.223,380.116C302.887,369.442,302.936,358.784,302.99,347.659C303.568,347.03,304.141,346.868,304.856,346.937C305.007,357.84,305.016,368.513,305.087,379.646C304.635,380.116,304.121,380.124,303.223,380.116ZZ" style="fill: rgb(126, 198, 228);"/></g></g><g id="shape-f88fe35d-ef41-806b-8001-ba2e345f4e24"><g id="fills-f88fe35d-ef41-806b-8001-ba2e345f4e24"><path opacity="1.000000" stroke="none" rx="0" ry="0" d="M303.116,407.057C302.78,399.058,302.884,391.091,302.977,382.657C303.421,382.185,303.875,382.181,304.671,382.178C305.046,390.163,305.08,398.146,305.218,406.578C304.734,407.047,304.146,407.068,303.116,407.057ZZ" style="fill: rgb(127, 200, 229);"/></g></g><g id="shape-f88fe35d-ef41-806b-8001-ba2e345fa507"><g id="fills-f88fe35d-ef41-806b-8001-ba2e345fa507"><path opacity="1.000000" stroke="none" rx="0" ry="0" d="M136.431,187.723C134.136,184.067,131.53,180.891,130.113,177.253C125.886,166.398,135.058,155.484,146.54,157.553C156.126,159.279,162.706,165.618,168.487,172.862C169.071,173.592,168.8,175.813,168.097,176.635C161.75,184.065,155.218,191.337,148.087,199.394C144.068,195.382,140.366,191.687,136.431,187.723ZM157.775,184.45C160.62,181.222,163.465,177.994,166.567,174.475C161.388,168.424,156.039,163.057,148.413,160.735C142.777,159.019,137.809,160.551,134.001,164.975C130.339,169.23,130.812,174.267,133.594,178.447C137.646,184.534,142.544,190.058,147.348,196.161C151.348,191.667,154.325,188.322,157.775,184.45ZZ" style="fill: rgb(36, 46, 67);"/></g></g><g id="shape-f88fe35d-ef41-806b-8001-ba2e345fe16f"><g id="fills-f88fe35d-ef41-806b-8001-ba2e345fe16f"><path opacity="1.000000" stroke="none" rx="0" ry="0" d="M269.96,262.445C262.442,268.191,254.578,273.715,246.359,279.226C248.993,271.822,251.98,264.431,255.019,256.685C259.918,258.294,264.765,260.259,269.96,262.445ZZ" style="fill: rgb(122, 133, 237);"/></g></g><g id="shape-f88fe35d-ef41-806b-8001-ba2e345fe170"><g id="fills-f88fe35d-ef41-806b-8001-ba2e345fe170"><path opacity="1.000000" stroke="none" rx="0" ry="0" d="M90.678,288.383C90.563,286.15,90.82,284.075,91.119,281.624C101.419,286.14,111.678,291.032,121.937,295.924C121.756,296.426,121.574,296.927,121.393,297.429C111.279,294.466,101.165,291.503,90.678,288.383ZZ" style="fill: rgb(25, 41, 64);"/></g></g><g id="shape-f88fe35d-ef41-806b-8001-ba2e345fe171"><g id="fills-f88fe35d-ef41-806b-8001-ba2e345fe171"><path opacity="1.000000" stroke="none" rx="0" ry="0" d="M245.726,279.216C245.864,279.504,245.689,279.838,245.232,280.295C245.104,280.033,245.259,279.648,245.726,279.216ZZ" style="fill: rgb(122, 133, 237);"/></g></g><g id="shape-f88fe35d-ef41-806b-8001-ba2e34606aa3"><g id="fills-f88fe35d-ef41-806b-8001-ba2e34606aa3"><path opacity="1.000000" stroke="none" rx="0" ry="0" d="M290.07,174.753C288.253,174.796,286.458,174.483,284.262,174.157C284.532,160.215,285.14,146.283,285.955,132.364C286.052,130.702,287.072,128.973,288.018,127.502C294.049,118.124,293.923,111.281,287.387,102.297C282.889,96.116,278.381,89.943,273.677,83.462C279.472,73.904,287.267,66.514,297.277,61.921C301.056,60.187,305.557,59.354,309.741,59.31C320.118,59.201,324.805,64.173,325.097,75.427C325.057,77.889,325.045,79.515,325.017,81.531C324.682,83.665,324.363,85.411,323.984,87.541C323.219,90.786,322.513,93.648,321.808,96.509C322.329,96.85,322.849,97.19,323.37,97.531C335.653,89.509,348.115,81.746,360.157,73.378C368.819,67.36,377.483,61.134,383.225,51.887C386.53,54.687,386.219,57.704,383.254,60.322C375.914,66.8,368.872,73.761,360.859,79.295C348.571,87.782,335.545,95.195,322.9,103.171C321.179,104.256,319.19,105.681,318.44,107.427C308.872,129.699,299.508,152.059,290.07,174.753ZZ" style="fill: rgb(253, 157, 139);"/></g></g><g id="shape-f88fe35d-ef41-806b-8001-ba2e346089d4"><g id="fills-f88fe35d-ef41-806b-8001-ba2e346089d4"><path opacity="1.000000" stroke="none" rx="0" ry="0" d="M372.871,132.038C375.06,131.622,377.68,130.217,379.367,130.952C389.832,135.513,400.448,139.925,410.338,145.571C428.82,156.121,446.54,167.921,461.591,183.185C463.836,185.461,464.911,188.891,465.831,192C459.631,190.633,453.821,189.722,448.68,187.356C428.891,178.249,410.719,166.369,393.565,153.032C385.81,147.002,377.191,141.564,372.871,132.038ZM430.827,164.938C427.978,157.39,418.597,161.252,414.227,155.804C415.41,155.358,416.2,155.06,416.991,154.763C416.659,154.347,416.327,153.931,415.995,153.516C412.953,153.17,409.91,152.824,406.154,152.396C407.41,153.507,408.604,154.06,408.938,154.94C411.157,160.786,415.189,163.351,421.509,163.458C423.296,163.488,425.036,166.268,426.798,167.787C426.514,168.269,426.229,168.751,425.945,169.233C428.17,169.233,430.395,169.233,432.751,169.233C432.14,167.965,431.579,166.801,430.827,164.938ZZ" style="fill: rgb(253, 194, 92);"/></g></g><g id="shape-f88fe35d-ef41-806b-8001-ba2e346089d5"><g id="fills-f88fe35d-ef41-806b-8001-ba2e346089d5"><path opacity="1.000000" stroke="none" rx="0" ry="0" d="M383.141,51.535C377.483,61.134,368.819,67.36,360.157,73.378C348.115,81.746,335.653,89.509,323.37,97.531C322.849,97.19,322.329,96.85,321.808,96.509C322.513,93.648,323.219,90.786,324.406,87.531C330.602,87.624,334.728,85.737,337.279,80.157C338.539,77.401,341.164,75.276,344.822,78.214C346.117,75.735,347.213,73.637,348.414,71.338C341.589,70.921,336.232,71.998,333.573,79.094C332.953,80.748,330.297,83.749,327.282,80.553C327.028,80.282,325.806,80.924,325.033,81.142C325.045,79.515,325.057,77.889,325.048,75.873C326.655,74.732,328.31,74.036,329.905,73.221C344.479,65.769,358.965,58.138,373.68,50.977C376.345,49.68,380.05,47.263,383.141,51.535ZZ" style="fill: rgb(253, 194, 92);"/></g></g><g id="shape-f88fe35d-ef41-806b-8001-ba2e3460dbb2"><g id="fills-f88fe35d-ef41-806b-8001-ba2e3460dbb2"><path opacity="1.000000" stroke="none" rx="0" ry="0" d="M372.596,132.242C377.191,141.564,385.81,147.002,393.565,153.032C410.719,166.369,428.891,178.249,448.68,187.356C453.821,189.722,459.631,190.633,465.567,192.215C464.212,197.368,460.495,198.237,456.142,196.017C441.976,188.788,427.28,182.322,414.01,173.685C400.03,164.585,387.352,153.454,374.344,142.916C371.222,140.387,368.016,136.881,372.596,132.242ZZ" style="fill: rgb(252, 157, 139);"/></g></g><g id="shape-f88fe35d-ef41-806b-8001-ba2e3460dbb3"><g id="fills-f88fe35d-ef41-806b-8001-ba2e3460dbb3"><path opacity="1.000000" stroke="none" rx="0" ry="0" d="M362.105,433.484C358.092,435.125,354.86,434.558,354.236,430.307C353.987,428.608,355.646,425.798,357.227,424.923C358.521,424.207,362.267,425.131,362.663,426.181C363.428,428.21,362.597,430.841,362.105,433.484ZZ" style="fill: rgb(116, 130, 236);"/></g></g><g id="shape-f88fe35d-ef41-806b-8001-ba2e346154ac"><g id="fills-f88fe35d-ef41-806b-8001-ba2e346154ac"><path opacity="1.000000" stroke="none" rx="0" ry="0" d="M262.957,137.18C256.374,129.506,250.089,121.863,243.99,114.074C242.915,112.702,242.52,110.751,241.98,109.015C240.379,103.863,240.963,99.112,245.041,95.247C249.121,91.381,254.04,91.086,259.009,92.82C270.608,96.866,278.464,105.623,286.701,114.859C278.659,122.529,270.989,129.846,262.957,137.18ZM275.91,121.57C278.294,119.369,280.678,117.167,283.164,114.871C275.806,106.753,268.887,99.558,259.347,95.672C254.944,93.879,250.499,93.615,246.768,97.232C243.001,100.884,243.326,105.341,245.002,109.766C248.674,119.467,255.478,126.854,263.97,135.192C267.973,130.599,271.689,126.335,275.91,121.57ZZ" style="fill: rgb(32, 44, 66);"/></g></g><g id="shape-f88fe35d-ef41-806b-8001-ba2e34619a90"><g id="fills-f88fe35d-ef41-806b-8001-ba2e34619a90"><path opacity="1.000000" stroke="none" rx="0" ry="0" d="M71.209,101.999C69.056,101.409,67.283,100.454,65.538,100.502C58.875,100.684,57.006,96.648,56.065,91.022C54.464,81.452,53.032,71.919,55.36,62.294C59.913,43.467,82.402,31.991,102.419,38.934C109.534,41.402,116.578,45.05,122.581,49.581C151.006,71.034,179.1,92.926,207.213,114.79C213.077,119.349,214.375,124.535,211.736,131.726C208.362,140.919,202.11,148.013,194.222,153.605C188.429,157.711,182.409,156.211,176.786,153.105C163.108,145.55,149.464,137.924,135.942,130.094C115.557,118.29,93.925,109.414,71.209,101.999ZM173.706,139.971C178.273,143.757,182.84,147.544,187.871,151.715C192.576,145.461,196.857,139.792,201.115,134.106C208.4,124.376,208.66,123.948,198.209,117.411C191.559,113.252,184.278,109.255,176.745,107.549C165.508,105.005,157.954,115.207,162.983,125.525C165.469,130.624,169.744,134.85,173.706,139.971ZZ" style="fill: rgb(253, 156, 137);"/></g></g><g id="shape-f88fe35d-ef41-806b-8001-ba2e34619a91"><g id="fills-f88fe35d-ef41-806b-8001-ba2e34619a91"><path opacity="1.000000" stroke="none" rx="0" ry="0" d="M267.748,175.335C261.601,164.323,257.075,152.685,253.152,139.071C265.29,146.391,273.979,141.265,282.974,133.619C283.815,147.468,282.618,160.388,280.454,173.723C275.866,174.547,271.807,174.941,267.748,175.335ZZ" style="fill: rgb(252, 155, 137);"/></g></g><g id="shape-f88fe35d-ef41-806b-8001-ba2e3461c892"><g id="fills-f88fe35d-ef41-806b-8001-ba2e3461c892"><path opacity="1.000000" stroke="none" rx="0" ry="0" d="M267.826,175.683C271.807,174.941,275.866,174.547,280.363,174.148C280.007,179.818,279.214,185.495,278.42,191.171C277.753,191.357,277.086,191.542,276.418,191.727C273.58,186.496,270.742,181.264,267.826,175.683ZZ" style="fill: rgb(248, 188, 81);"/></g></g><g id="shape-f88fe35d-ef41-806b-8001-ba2e3461c893"><g id="fills-f88fe35d-ef41-806b-8001-ba2e3461c893"><path opacity="1.000000" stroke="none" rx="0" ry="0" d="M209.565,112.612C208.691,112.462,208.036,112.104,206.82,111.439C208.209,111.439,208.999,111.439,209.991,111.697C210.057,112.105,209.921,112.254,209.565,112.612ZZ" style="fill: rgb(254, 156, 138);"/></g></g><g id="shape-f88fe35d-ef41-806b-8001-ba2e34622ea5"><g id="fills-f88fe35d-ef41-806b-8001-ba2e34622ea5"><path opacity="1.000000" stroke="none" rx="0" ry="0" d="M155.466,145.598C154.819,145.271,154.486,144.701,154.152,144.13C154.708,144.196,155.264,144.262,156.084,144.563C156.157,144.984,155.968,145.169,155.466,145.598ZZ" style="fill: rgb(254, 156, 138);"/></g></g><g id="shape-f88fe35d-ef41-806b-8001-ba2e34622ea6"><g id="fills-f88fe35d-ef41-806b-8001-ba2e34622ea6"><path opacity="1.000000" stroke="none" rx="0" ry="0" d="M157.539,184.714C154.325,188.322,151.348,191.667,147.348,196.161C142.544,190.058,137.646,184.534,133.594,178.447C130.812,174.267,130.339,169.23,134.001,164.975C137.809,160.551,142.777,159.019,148.413,160.735C156.039,163.057,161.388,168.424,166.567,174.475C163.465,177.994,160.62,181.222,157.539,184.714ZZ" style="fill: rgb(252, 155, 137);"/></g></g><g id="shape-f88fe35d-ef41-806b-8001-ba2e34627bd6"><g id="fills-f88fe35d-ef41-806b-8001-ba2e34627bd6"><path opacity="1.000000" stroke="none" rx="0" ry="0" d="M325.017,81.531C325.806,80.924,327.028,80.282,327.282,80.553C330.297,83.749,332.953,80.748,333.573,79.094C336.232,71.998,341.589,70.921,348.414,71.338C347.213,73.637,346.117,75.735,344.822,78.214C341.164,75.276,338.539,77.401,337.279,80.157C334.728,85.737,330.602,87.624,324.466,87.147C324.363,85.411,324.682,83.665,325.017,81.531ZZ" style="fill: rgb(247, 222, 184);"/></g></g><g id="shape-f88fe35d-ef41-806b-8001-ba2e34627bd7"><g id="fills-f88fe35d-ef41-806b-8001-ba2e34627bd7"><path opacity="1.000000" stroke="none" rx="0" ry="0" d="M430.923,165.288C431.579,166.801,432.14,167.965,432.751,169.233C430.395,169.233,428.17,169.233,425.945,169.233C426.229,168.751,426.514,168.269,426.798,167.787C425.036,166.268,423.296,163.488,421.509,163.458C415.189,163.351,411.157,160.786,408.938,154.94C408.604,154.06,407.41,153.507,406.154,152.396C409.91,152.824,412.953,153.17,415.995,153.516C416.327,153.931,416.659,154.347,416.991,154.763C416.2,155.06,415.41,155.358,414.227,155.804C418.597,161.252,427.978,157.39,430.923,165.288ZZ" style="fill: rgb(247, 222, 185);"/></g></g><g id="shape-f88fe35d-ef41-806b-8001-ba2e3462af68"><g id="fills-f88fe35d-ef41-806b-8001-ba2e3462af68"><path opacity="1.000000" stroke="none" rx="0" ry="0" d="M275.657,121.821C271.689,126.335,267.973,130.599,263.97,135.192C255.478,126.854,248.674,119.467,245.002,109.766C243.326,105.341,243.001,100.884,246.768,97.232C250.499,93.615,254.944,93.879,259.347,95.672C268.887,99.558,275.806,106.753,283.164,114.871C280.678,117.167,278.294,119.369,275.657,121.821ZZ" style="fill: rgb(251, 155, 137);"/></g></g><g id="shape-f88fe35d-ef41-806b-8001-ba2e3462f6ce"><g id="fills-f88fe35d-ef41-806b-8001-ba2e3462f6ce"><path opacity="1.000000" stroke="none" rx="0" ry="0" d="M173.458,139.721C169.744,134.85,165.469,130.624,162.983,125.525C157.954,115.207,165.508,105.005,176.745,107.549C184.278,109.255,191.559,113.252,198.209,117.411C208.66,123.948,208.4,124.376,201.115,134.106C196.857,139.792,192.576,145.461,187.871,151.715C182.84,147.544,178.273,143.757,173.458,139.721ZM190.322,144.027C194.903,137.926,199.484,131.824,204.266,125.454C196.776,118.948,188.999,113.311,179.583,110.588C174.698,109.176,169.544,108.93,165.932,113.727C162.304,118.547,164.125,123.218,166.851,127.617C172.014,135.951,179.472,141.917,187.35,147.689C188.43,146.393,189.167,145.507,190.322,144.027ZZ" style="fill: rgb(35, 46, 67);"/></g></g><g id="shape-f88fe35d-ef41-806b-8001-ba2e3462f6cf"><g id="fills-f88fe35d-ef41-806b-8001-ba2e3462f6cf"><path opacity="1.000000" stroke="none" rx="0" ry="0" d="M190.114,144.324C189.167,145.507,188.43,146.393,187.35,147.689C179.472,141.917,172.014,135.951,166.851,127.617C164.125,123.218,162.304,118.547,165.932,113.727C169.544,108.93,174.698,109.176,179.583,110.588C188.999,113.311,196.776,118.948,204.266,125.454C199.484,131.824,194.903,137.926,190.114,144.324ZZ" style="fill: rgb(252, 156, 137);"/></g></g></g></svg>